G75*
G70*
%OFA0B0*%
%FSLAX24Y24*%
%IPPOS*%
%LPD*%
%AMOC8*
5,1,8,0,0,1.08239X$1,22.5*
%
%ADD10C,0.0000*%
%ADD11C,0.0050*%
%ADD12C,0.0100*%
%ADD13C,0.0040*%
%ADD14C,0.0400*%
%ADD15C,0.0060*%
%ADD16C,0.0020*%
%ADD17C,0.0080*%
%ADD18C,0.0010*%
D10*
X005948Y001650D02*
X005948Y020150D01*
X005950Y020194D01*
X005956Y020237D01*
X005965Y020279D01*
X005978Y020321D01*
X005995Y020361D01*
X006015Y020400D01*
X006038Y020437D01*
X006065Y020471D01*
X006094Y020504D01*
X006127Y020533D01*
X006161Y020560D01*
X006198Y020583D01*
X006237Y020603D01*
X006277Y020620D01*
X006319Y020633D01*
X006361Y020642D01*
X006404Y020648D01*
X006448Y020650D01*
X024948Y020650D01*
X024992Y020648D01*
X025035Y020642D01*
X025077Y020633D01*
X025119Y020620D01*
X025159Y020603D01*
X025198Y020583D01*
X025235Y020560D01*
X025269Y020533D01*
X025302Y020504D01*
X025331Y020471D01*
X025358Y020437D01*
X025381Y020400D01*
X025401Y020361D01*
X025418Y020321D01*
X025431Y020279D01*
X025440Y020237D01*
X025446Y020194D01*
X025448Y020150D01*
X025448Y001650D01*
X025446Y001606D01*
X025440Y001563D01*
X025431Y001521D01*
X025418Y001479D01*
X025401Y001439D01*
X025381Y001400D01*
X025358Y001363D01*
X025331Y001329D01*
X025302Y001296D01*
X025269Y001267D01*
X025235Y001240D01*
X025198Y001217D01*
X025159Y001197D01*
X025119Y001180D01*
X025077Y001167D01*
X025035Y001158D01*
X024992Y001152D01*
X024948Y001150D01*
X006448Y001150D01*
X006404Y001152D01*
X006361Y001158D01*
X006319Y001167D01*
X006277Y001180D01*
X006237Y001197D01*
X006198Y001217D01*
X006161Y001240D01*
X006127Y001267D01*
X006094Y001296D01*
X006065Y001329D01*
X006038Y001363D01*
X006015Y001400D01*
X005995Y001439D01*
X005978Y001479D01*
X005965Y001521D01*
X005956Y001563D01*
X005950Y001606D01*
X005948Y001650D01*
X006892Y004014D02*
X006894Y004043D01*
X006900Y004071D01*
X006909Y004099D01*
X006922Y004125D01*
X006939Y004148D01*
X006958Y004170D01*
X006980Y004189D01*
X007005Y004204D01*
X007031Y004217D01*
X007059Y004225D01*
X007087Y004230D01*
X007116Y004231D01*
X007145Y004228D01*
X007173Y004221D01*
X007200Y004211D01*
X007226Y004197D01*
X007249Y004180D01*
X007270Y004160D01*
X007288Y004137D01*
X007303Y004112D01*
X007314Y004085D01*
X007322Y004057D01*
X007326Y004028D01*
X007326Y004000D01*
X007322Y003971D01*
X007314Y003943D01*
X007303Y003916D01*
X007288Y003891D01*
X007270Y003868D01*
X007249Y003848D01*
X007226Y003831D01*
X007200Y003817D01*
X007173Y003807D01*
X007145Y003800D01*
X007116Y003797D01*
X007087Y003798D01*
X007059Y003803D01*
X007031Y003811D01*
X007005Y003824D01*
X006980Y003839D01*
X006958Y003858D01*
X006939Y003880D01*
X006922Y003903D01*
X006909Y003929D01*
X006900Y003957D01*
X006894Y003985D01*
X006892Y004014D01*
X006892Y005786D02*
X006894Y005815D01*
X006900Y005843D01*
X006909Y005871D01*
X006922Y005897D01*
X006939Y005920D01*
X006958Y005942D01*
X006980Y005961D01*
X007005Y005976D01*
X007031Y005989D01*
X007059Y005997D01*
X007087Y006002D01*
X007116Y006003D01*
X007145Y006000D01*
X007173Y005993D01*
X007200Y005983D01*
X007226Y005969D01*
X007249Y005952D01*
X007270Y005932D01*
X007288Y005909D01*
X007303Y005884D01*
X007314Y005857D01*
X007322Y005829D01*
X007326Y005800D01*
X007326Y005772D01*
X007322Y005743D01*
X007314Y005715D01*
X007303Y005688D01*
X007288Y005663D01*
X007270Y005640D01*
X007249Y005620D01*
X007226Y005603D01*
X007200Y005589D01*
X007173Y005579D01*
X007145Y005572D01*
X007116Y005569D01*
X007087Y005570D01*
X007059Y005575D01*
X007031Y005583D01*
X007005Y005596D01*
X006980Y005611D01*
X006958Y005630D01*
X006939Y005652D01*
X006922Y005675D01*
X006909Y005701D01*
X006900Y005729D01*
X006894Y005757D01*
X006892Y005786D01*
D11*
X010548Y011075D02*
X010698Y011075D01*
X010773Y011150D01*
X010933Y011150D02*
X011008Y011075D01*
X011158Y011075D01*
X011234Y011150D01*
X011234Y011450D02*
X011158Y011525D01*
X011008Y011525D01*
X010933Y011450D01*
X010933Y011150D01*
X010773Y011450D02*
X010698Y011525D01*
X010548Y011525D01*
X010473Y011450D01*
X010473Y011150D01*
X010548Y011075D01*
X011854Y011075D02*
X012079Y011075D01*
X012154Y011150D01*
X012154Y011225D01*
X012079Y011300D01*
X011854Y011300D01*
X011854Y011075D02*
X011854Y011525D01*
X012079Y011525D01*
X012154Y011450D01*
X012154Y011375D01*
X012079Y011300D01*
X012314Y011450D02*
X012465Y011300D01*
X012465Y011075D01*
X012465Y011300D02*
X012615Y011450D01*
X012615Y011525D01*
X012775Y011300D02*
X013075Y011300D01*
X013235Y011375D02*
X013310Y011300D01*
X013460Y011300D01*
X013535Y011225D01*
X013535Y011150D01*
X013460Y011075D01*
X013310Y011075D01*
X013235Y011150D01*
X013235Y011375D02*
X013235Y011450D01*
X013310Y011525D01*
X013460Y011525D01*
X013535Y011450D01*
X013696Y011375D02*
X013846Y011525D01*
X013996Y011375D01*
X013996Y011075D01*
X013996Y011300D02*
X013696Y011300D01*
X013696Y011375D02*
X013696Y011075D01*
X014616Y011150D02*
X014691Y011075D01*
X014842Y011075D01*
X014917Y011150D01*
X014917Y011225D01*
X014842Y011300D01*
X014767Y011300D01*
X014842Y011300D02*
X014917Y011375D01*
X014917Y011450D01*
X014842Y011525D01*
X014691Y011525D01*
X014616Y011450D01*
X015077Y011150D02*
X015077Y011075D01*
X015152Y011075D01*
X015152Y011150D01*
X015077Y011150D01*
X015307Y011150D02*
X015382Y011075D01*
X015532Y011075D01*
X015607Y011150D01*
X015607Y011450D01*
X015307Y011150D01*
X015307Y011450D01*
X015382Y011525D01*
X015532Y011525D01*
X015607Y011450D01*
X012598Y013734D02*
X012298Y013734D01*
X012448Y013583D02*
X012448Y013884D01*
X012598Y014044D02*
X012673Y014119D01*
X012673Y014269D01*
X012598Y014344D01*
X012523Y014344D01*
X012448Y014269D01*
X012448Y014194D01*
X012448Y014269D02*
X012373Y014344D01*
X012298Y014344D01*
X012222Y014269D01*
X012222Y014119D01*
X012298Y014044D01*
X012222Y014504D02*
X012523Y014504D01*
X012673Y014654D01*
X012523Y014804D01*
X012222Y014804D01*
X012298Y014965D02*
X012222Y015040D01*
X012222Y015190D01*
X012298Y015265D01*
X012373Y015265D01*
X012448Y015190D01*
X012523Y015265D01*
X012598Y015265D01*
X012673Y015190D01*
X012673Y015040D01*
X012598Y014965D01*
X012448Y015115D02*
X012448Y015190D01*
X011673Y015190D02*
X011673Y015040D01*
X011598Y014965D01*
X011298Y014965D01*
X011222Y015040D01*
X011222Y015190D01*
X011298Y015265D01*
X011598Y015265D02*
X011673Y015190D01*
X011598Y014804D02*
X011673Y014729D01*
X011673Y014579D01*
X011598Y014504D01*
X011298Y014504D01*
X011222Y014579D01*
X011222Y014729D01*
X011298Y014804D01*
X011222Y014344D02*
X011523Y014344D01*
X011673Y014194D01*
X011523Y014044D01*
X011222Y014044D01*
X010673Y014579D02*
X010598Y014504D01*
X010673Y014579D02*
X010673Y014729D01*
X010598Y014804D01*
X010448Y014804D01*
X010373Y014729D01*
X010373Y014654D01*
X010448Y014504D01*
X010222Y014504D01*
X010222Y014804D01*
X010222Y014965D02*
X010523Y014965D01*
X010673Y015115D01*
X010523Y015265D01*
X010222Y015265D01*
X010448Y014344D02*
X010448Y014044D01*
X010298Y014194D02*
X010598Y014194D01*
X012314Y011525D02*
X012314Y011450D01*
X012448Y017925D02*
X012448Y018225D01*
X012298Y018075D02*
X012598Y018075D01*
X012598Y018385D02*
X012673Y018460D01*
X012673Y018611D01*
X012598Y018686D01*
X012523Y018686D01*
X012448Y018611D01*
X012448Y018536D01*
X012448Y018611D02*
X012373Y018686D01*
X012298Y018686D01*
X012222Y018611D01*
X012222Y018460D01*
X012298Y018385D01*
X012222Y018846D02*
X012523Y018846D01*
X012673Y018996D01*
X012523Y019146D01*
X012222Y019146D01*
X012298Y019306D02*
X012222Y019381D01*
X012222Y019531D01*
X012298Y019606D01*
X012373Y019606D01*
X012448Y019531D01*
X012523Y019606D01*
X012598Y019606D01*
X012673Y019531D01*
X012673Y019381D01*
X012598Y019306D01*
X012448Y019456D02*
X012448Y019531D01*
X011598Y018532D02*
X011298Y018532D01*
X011222Y018457D01*
X011222Y018307D01*
X011298Y018232D01*
X011598Y018232D01*
X011673Y018307D01*
X011673Y018457D01*
X011598Y018532D01*
X011673Y018075D02*
X011673Y017925D01*
X011673Y018000D02*
X011222Y018000D01*
X011222Y017925D02*
X011222Y018075D01*
X010673Y018460D02*
X010598Y018385D01*
X010673Y018460D02*
X010673Y018611D01*
X010598Y018686D01*
X010448Y018686D01*
X010373Y018611D01*
X010373Y018536D01*
X010448Y018385D01*
X010222Y018385D01*
X010222Y018686D01*
X010222Y018846D02*
X010523Y018846D01*
X010673Y018996D01*
X010523Y019146D01*
X010222Y019146D01*
X010448Y018225D02*
X010448Y017925D01*
X010298Y018075D02*
X010598Y018075D01*
X020473Y017925D02*
X020773Y017925D01*
X020623Y017925D02*
X020623Y018375D01*
X020473Y018225D01*
X020473Y018925D02*
X020773Y019225D01*
X020773Y019300D01*
X020698Y019375D01*
X020548Y019375D01*
X020473Y019300D01*
X020473Y018925D02*
X020773Y018925D01*
X022323Y017300D02*
X022473Y017450D01*
X022623Y017525D01*
X022548Y017300D02*
X022323Y017300D01*
X022323Y017150D01*
X022398Y017075D01*
X022548Y017075D01*
X022623Y017150D01*
X022623Y017225D01*
X022548Y017300D01*
X022349Y012275D02*
X022199Y012275D01*
X022124Y012200D01*
X022124Y011900D01*
X022424Y012200D01*
X022424Y011900D01*
X022349Y011825D01*
X022199Y011825D01*
X022124Y011900D01*
X021969Y011900D02*
X021969Y011825D01*
X021894Y011825D01*
X021894Y011900D01*
X021969Y011900D01*
X021734Y011825D02*
X021433Y011825D01*
X021583Y011825D02*
X021583Y012275D01*
X021433Y012125D01*
X021273Y012125D02*
X021123Y011825D01*
X020973Y012125D01*
X022349Y012275D02*
X022424Y012200D01*
X023923Y009146D02*
X024073Y009146D01*
X024148Y009071D01*
X024148Y008846D01*
X024298Y008846D02*
X023847Y008846D01*
X023847Y009071D01*
X023923Y009146D01*
X024148Y008996D02*
X024298Y009146D01*
X024597Y009146D02*
X025048Y009146D01*
X024597Y008846D01*
X025048Y008846D01*
X025048Y008686D02*
X024898Y008536D01*
X024898Y008611D02*
X024898Y008385D01*
X025048Y008385D02*
X024597Y008385D01*
X024597Y008611D01*
X024673Y008686D01*
X024823Y008686D01*
X024898Y008611D01*
X024973Y008225D02*
X024823Y008225D01*
X024823Y008075D01*
X024673Y007925D02*
X024973Y007925D01*
X025048Y008000D01*
X025048Y008150D01*
X024973Y008225D01*
X024673Y008225D02*
X024597Y008150D01*
X024597Y008000D01*
X024673Y007925D01*
X024298Y007925D02*
X024298Y008150D01*
X024223Y008225D01*
X023923Y008225D01*
X023847Y008150D01*
X023847Y007925D01*
X024298Y007925D01*
X023847Y008385D02*
X023847Y008686D01*
X023847Y008536D02*
X024298Y008536D01*
X023723Y002705D02*
X023498Y002480D01*
X023573Y002405D02*
X023272Y002705D01*
X023272Y002405D02*
X023723Y002405D01*
X023723Y002245D02*
X023723Y001945D01*
X023272Y001945D01*
X023348Y001785D02*
X023423Y001785D01*
X023498Y001710D01*
X023498Y001484D01*
X023723Y001484D02*
X023723Y001710D01*
X023648Y001785D01*
X023573Y001785D01*
X023498Y001710D01*
X023348Y001785D02*
X023272Y001710D01*
X023272Y001484D01*
X023723Y001484D01*
X022973Y001559D02*
X022898Y001484D01*
X022598Y001484D01*
X022522Y001559D01*
X022522Y001710D01*
X022598Y001785D01*
X022748Y001785D02*
X022748Y001635D01*
X022748Y001785D02*
X022898Y001785D01*
X022973Y001710D01*
X022973Y001559D01*
X022973Y001945D02*
X022522Y001945D01*
X022973Y002245D01*
X022522Y002245D01*
X022522Y002405D02*
X022522Y002630D01*
X022598Y002705D01*
X022898Y002705D01*
X022973Y002630D01*
X022973Y002405D01*
X022522Y002405D01*
D12*
X018962Y011850D02*
X018762Y011850D01*
X018662Y011950D01*
X018662Y012150D01*
X018762Y012250D01*
X018962Y012250D01*
X019063Y012150D01*
X019063Y012050D01*
X018662Y012050D01*
X018418Y012150D02*
X018418Y011850D01*
X018418Y012150D02*
X018318Y012250D01*
X018018Y012250D01*
X018018Y011850D01*
X017773Y011950D02*
X017773Y012150D01*
X017673Y012250D01*
X017473Y012250D01*
X017373Y012150D01*
X017373Y011950D01*
X017473Y011850D01*
X017673Y011850D01*
X017773Y011950D01*
X017129Y012150D02*
X016729Y012150D01*
X016484Y012150D02*
X016484Y011850D01*
X016484Y012150D02*
X016384Y012250D01*
X016084Y012250D01*
X016084Y011850D01*
X015854Y011850D02*
X015654Y011850D01*
X015754Y011850D02*
X015754Y012250D01*
X015654Y012250D01*
X015754Y012451D02*
X015754Y012551D01*
X015410Y012150D02*
X015010Y012150D01*
X014780Y011850D02*
X014580Y011850D01*
X014680Y011850D02*
X014680Y012451D01*
X014580Y012451D01*
X014250Y012451D02*
X014250Y011850D01*
X014150Y011850D02*
X014350Y011850D01*
X013906Y011850D02*
X013906Y012150D01*
X013806Y012250D01*
X013606Y012250D01*
X013606Y012050D02*
X013906Y012050D01*
X013906Y011850D02*
X013606Y011850D01*
X013506Y011950D01*
X013606Y012050D01*
X014150Y012451D02*
X014250Y012451D01*
X012632Y012451D02*
X012432Y012451D01*
X012532Y012451D02*
X012532Y011850D01*
X012432Y011850D02*
X012632Y011850D01*
X012187Y011950D02*
X012187Y012350D01*
X012087Y012451D01*
X011787Y012451D01*
X011787Y011850D01*
X012087Y011850D01*
X012187Y011950D01*
X011543Y012451D02*
X011142Y012451D01*
X011343Y012451D02*
X011343Y011850D01*
X010698Y012150D02*
X010498Y012150D01*
X010498Y011850D02*
X010498Y012451D01*
X010898Y012451D01*
X013688Y018530D02*
X013868Y018530D01*
X014508Y018530D02*
X014708Y018530D01*
X015688Y018530D02*
X015868Y018530D01*
X016508Y018530D02*
X016708Y018530D01*
X017688Y018530D02*
X017868Y018530D01*
X018508Y018530D02*
X018708Y018530D01*
D13*
X018706Y018030D02*
X018586Y017910D01*
X018458Y017970D02*
X018398Y018030D01*
X018218Y018030D01*
X018218Y017670D01*
X018398Y017670D01*
X018458Y017730D01*
X018458Y017970D01*
X018706Y018030D02*
X018706Y017670D01*
X018586Y017670D02*
X018826Y017670D01*
X018878Y017265D02*
X018998Y017265D01*
X019058Y017205D01*
X019058Y017025D01*
X019178Y017025D02*
X018818Y017025D01*
X018818Y017205D01*
X018878Y017265D01*
X019058Y017145D02*
X019178Y017265D01*
X019118Y016897D02*
X018878Y016897D01*
X019118Y016657D01*
X019178Y016717D01*
X019178Y016837D01*
X019118Y016897D01*
X019118Y016657D02*
X018878Y016657D01*
X018818Y016717D01*
X018818Y016837D01*
X018878Y016897D01*
X018818Y016529D02*
X018878Y016408D01*
X018998Y016288D01*
X018998Y016468D01*
X019058Y016529D01*
X019118Y016529D01*
X019178Y016468D01*
X019178Y016348D01*
X019118Y016288D01*
X018998Y016288D01*
X018998Y016160D02*
X019118Y016160D01*
X019178Y016100D01*
X019178Y015980D01*
X019118Y015920D01*
X018998Y015920D02*
X018938Y016040D01*
X018938Y016100D01*
X018998Y016160D01*
X018818Y016160D02*
X018818Y015920D01*
X018998Y015920D01*
X018938Y015279D02*
X018878Y015279D01*
X018818Y015218D01*
X018818Y015098D01*
X018878Y015038D01*
X018878Y014910D02*
X018998Y014910D01*
X019058Y014850D01*
X019058Y014670D01*
X019178Y014670D02*
X018818Y014670D01*
X018818Y014850D01*
X018878Y014910D01*
X019058Y014790D02*
X019178Y014910D01*
X019178Y015038D02*
X018938Y015279D01*
X019178Y015279D02*
X019178Y015038D01*
X021068Y014779D02*
X021068Y014538D01*
X021248Y014538D01*
X021188Y014658D01*
X021188Y014718D01*
X021248Y014779D01*
X021368Y014779D01*
X021428Y014718D01*
X021428Y014598D01*
X021368Y014538D01*
X021428Y014410D02*
X021308Y014290D01*
X021308Y014350D02*
X021308Y014170D01*
X021428Y014170D02*
X021068Y014170D01*
X021068Y014350D01*
X021128Y014410D01*
X021248Y014410D01*
X021308Y014350D01*
X021428Y015670D02*
X021428Y015910D01*
X021428Y015790D02*
X021068Y015790D01*
X021188Y015670D01*
X021308Y016038D02*
X021188Y016218D01*
X021308Y016038D02*
X021428Y016218D01*
X021428Y016038D02*
X021068Y016038D01*
X023068Y016038D02*
X023428Y016038D01*
X023308Y016038D02*
X023188Y016218D01*
X023308Y016038D02*
X023428Y016218D01*
X023428Y015910D02*
X023428Y015670D01*
X023428Y015790D02*
X023068Y015790D01*
X023188Y015670D01*
X023248Y014779D02*
X023248Y014538D01*
X023068Y014718D01*
X023428Y014718D01*
X023428Y014410D02*
X023308Y014290D01*
X023308Y014350D02*
X023308Y014170D01*
X023428Y014170D02*
X023068Y014170D01*
X023068Y014350D01*
X023128Y014410D01*
X023248Y014410D01*
X023308Y014350D01*
X024818Y014350D02*
X024878Y014410D01*
X024998Y014410D01*
X025058Y014350D01*
X025058Y014170D01*
X025178Y014170D02*
X024818Y014170D01*
X024818Y014350D01*
X025058Y014290D02*
X025178Y014410D01*
X025118Y014538D02*
X025178Y014598D01*
X025178Y014718D01*
X025118Y014779D01*
X025058Y014779D01*
X024998Y014718D01*
X024998Y014538D01*
X025118Y014538D01*
X024998Y014538D02*
X024878Y014658D01*
X024818Y014779D01*
X024938Y015670D02*
X024818Y015790D01*
X025178Y015790D01*
X025178Y015670D02*
X025178Y015910D01*
X025178Y016038D02*
X024818Y016038D01*
X024938Y016218D02*
X025058Y016038D01*
X025178Y016218D01*
X024428Y017670D02*
X024068Y017910D01*
X024188Y018038D02*
X024068Y018158D01*
X024428Y018158D01*
X024428Y018038D02*
X024428Y018279D01*
X024428Y017910D02*
X024068Y017670D01*
X024068Y018920D02*
X024068Y019040D01*
X024068Y018980D02*
X024428Y018980D01*
X024428Y018920D02*
X024428Y019040D01*
X024368Y019166D02*
X024428Y019226D01*
X024428Y019346D01*
X024368Y019406D01*
X024308Y019406D01*
X024248Y019346D01*
X024248Y019226D01*
X024188Y019166D01*
X024128Y019166D01*
X024068Y019226D01*
X024068Y019346D01*
X024128Y019406D01*
X024068Y019534D02*
X024068Y019714D01*
X024128Y019774D01*
X024248Y019774D01*
X024308Y019714D01*
X024308Y019534D01*
X024428Y019534D02*
X024068Y019534D01*
X018730Y020290D02*
X018610Y020170D01*
X018490Y020290D01*
X018490Y020530D01*
X018362Y020470D02*
X018302Y020530D01*
X018182Y020530D01*
X018122Y020470D01*
X018122Y020170D01*
X017994Y020170D02*
X017754Y020530D01*
X017994Y020530D02*
X017754Y020170D01*
X018362Y020170D02*
X018362Y020470D01*
X018490Y020350D02*
X018730Y020350D01*
X018730Y020290D02*
X018730Y020530D01*
X016546Y020530D02*
X016546Y020170D01*
X016366Y020170D01*
X016306Y020230D01*
X016306Y020350D01*
X016366Y020410D01*
X016546Y020410D01*
X016426Y020410D02*
X016306Y020530D01*
X016178Y020530D02*
X015938Y020170D01*
X016178Y020170D02*
X015938Y020530D01*
X014546Y020170D02*
X014306Y020170D01*
X014426Y020170D02*
X014426Y020530D01*
X014178Y020530D02*
X013938Y020170D01*
X014178Y020170D02*
X013938Y020530D01*
X013850Y018030D02*
X013850Y017670D01*
X014090Y017670D01*
X014218Y017670D02*
X014218Y018030D01*
X014398Y018030D01*
X014458Y017970D01*
X014458Y017730D01*
X014398Y017670D01*
X014218Y017670D01*
X013970Y017850D02*
X013850Y017850D01*
X013850Y018030D02*
X014090Y018030D01*
X013721Y017670D02*
X013481Y017670D01*
X013481Y018030D01*
X014586Y017970D02*
X014646Y018030D01*
X014766Y018030D01*
X014826Y017970D01*
X014826Y017910D01*
X014586Y017670D01*
X014826Y017670D01*
X014878Y017265D02*
X014998Y017265D01*
X015058Y017205D01*
X015058Y017025D01*
X015178Y017025D02*
X014818Y017025D01*
X014818Y017205D01*
X014878Y017265D01*
X015058Y017145D02*
X015178Y017265D01*
X015118Y016897D02*
X014878Y016897D01*
X015118Y016657D01*
X015178Y016717D01*
X015178Y016837D01*
X015118Y016897D01*
X015118Y016657D02*
X014878Y016657D01*
X014818Y016717D01*
X014818Y016837D01*
X014878Y016897D01*
X014818Y016529D02*
X014878Y016408D01*
X014998Y016288D01*
X014998Y016468D01*
X015058Y016529D01*
X015118Y016529D01*
X015178Y016468D01*
X015178Y016348D01*
X015118Y016288D01*
X014998Y016288D01*
X014998Y016160D02*
X015118Y016160D01*
X015178Y016100D01*
X015178Y015980D01*
X015118Y015920D01*
X014998Y015920D02*
X014938Y016040D01*
X014938Y016100D01*
X014998Y016160D01*
X014818Y016160D02*
X014818Y015920D01*
X014998Y015920D01*
X014878Y015279D02*
X015118Y015038D01*
X015178Y015038D01*
X015178Y014910D02*
X015058Y014790D01*
X015058Y014850D02*
X015058Y014670D01*
X015178Y014670D02*
X014818Y014670D01*
X014818Y014850D01*
X014878Y014910D01*
X014998Y014910D01*
X015058Y014850D01*
X014818Y015038D02*
X014818Y015279D01*
X014878Y015279D01*
X016818Y015218D02*
X016878Y015279D01*
X016938Y015279D01*
X016998Y015218D01*
X016998Y015098D01*
X016938Y015038D01*
X016878Y015038D01*
X016818Y015098D01*
X016818Y015218D01*
X016998Y015218D02*
X017058Y015279D01*
X017118Y015279D01*
X017178Y015218D01*
X017178Y015098D01*
X017118Y015038D01*
X017058Y015038D01*
X016998Y015098D01*
X016998Y014910D02*
X017058Y014850D01*
X017058Y014670D01*
X017178Y014670D02*
X016818Y014670D01*
X016818Y014850D01*
X016878Y014910D01*
X016998Y014910D01*
X017058Y014790D02*
X017178Y014910D01*
X017118Y015920D02*
X017178Y015980D01*
X017178Y016100D01*
X017118Y016160D01*
X016998Y016160D01*
X016938Y016100D01*
X016938Y016040D01*
X016998Y015920D01*
X016818Y015920D01*
X016818Y016160D01*
X016998Y016288D02*
X016998Y016468D01*
X017058Y016529D01*
X017118Y016529D01*
X017178Y016468D01*
X017178Y016348D01*
X017118Y016288D01*
X016998Y016288D01*
X016878Y016408D01*
X016818Y016529D01*
X016878Y016657D02*
X016818Y016717D01*
X016818Y016837D01*
X016878Y016897D01*
X017118Y016657D01*
X017178Y016717D01*
X017178Y016837D01*
X017118Y016897D01*
X016878Y016897D01*
X016818Y017025D02*
X016818Y017205D01*
X016878Y017265D01*
X016998Y017265D01*
X017058Y017205D01*
X017058Y017025D01*
X017178Y017025D02*
X016818Y017025D01*
X017058Y017145D02*
X017178Y017265D01*
X017481Y017670D02*
X017721Y017670D01*
X017850Y017670D02*
X017850Y018030D01*
X018090Y018030D01*
X017970Y017850D02*
X017850Y017850D01*
X017850Y017670D02*
X018090Y017670D01*
X017481Y017670D02*
X017481Y018030D01*
X016826Y017970D02*
X016826Y017910D01*
X016766Y017850D01*
X016826Y017790D01*
X016826Y017730D01*
X016766Y017670D01*
X016646Y017670D01*
X016586Y017730D01*
X016458Y017730D02*
X016458Y017970D01*
X016398Y018030D01*
X016218Y018030D01*
X016218Y017670D01*
X016398Y017670D01*
X016458Y017730D01*
X016586Y017970D02*
X016646Y018030D01*
X016766Y018030D01*
X016826Y017970D01*
X016766Y017850D02*
X016706Y017850D01*
X016090Y017670D02*
X015850Y017670D01*
X015850Y018030D01*
X016090Y018030D01*
X015970Y017850D02*
X015850Y017850D01*
X015721Y017670D02*
X015481Y017670D01*
X015481Y018030D01*
X016878Y016657D02*
X017118Y016657D01*
X019968Y011280D02*
X020088Y011280D01*
X020028Y011280D02*
X020028Y010920D01*
X019968Y010920D02*
X020088Y010920D01*
X020213Y010980D02*
X020273Y010920D01*
X020394Y010920D01*
X020454Y010980D01*
X020582Y010920D02*
X020822Y011160D01*
X020822Y011220D01*
X020762Y011280D01*
X020642Y011280D01*
X020582Y011220D01*
X020454Y011220D02*
X020394Y011280D01*
X020273Y011280D01*
X020213Y011220D01*
X020213Y010980D01*
X020582Y010920D02*
X020822Y010920D01*
X020765Y010530D02*
X020705Y010470D01*
X020765Y010530D02*
X020885Y010530D01*
X020945Y010470D01*
X020945Y010410D01*
X020705Y010170D01*
X020945Y010170D01*
X021073Y010230D02*
X021133Y010170D01*
X021253Y010170D01*
X021313Y010230D01*
X021313Y010290D01*
X021253Y010350D01*
X021193Y010350D01*
X021253Y010350D02*
X021313Y010410D01*
X021313Y010470D01*
X021253Y010530D01*
X021133Y010530D01*
X021073Y010470D01*
X021441Y010470D02*
X021501Y010530D01*
X021621Y010530D01*
X021681Y010470D01*
X021681Y010410D01*
X021441Y010170D01*
X021681Y010170D01*
X021809Y010170D02*
X021809Y010530D01*
X021990Y010530D01*
X022050Y010470D01*
X022050Y010350D01*
X021990Y010290D01*
X021809Y010290D01*
X021930Y010290D02*
X022050Y010170D01*
X022178Y010170D02*
X022418Y010170D01*
X022178Y010170D02*
X022178Y010530D01*
X021266Y009280D02*
X021326Y009220D01*
X021326Y009160D01*
X021266Y009100D01*
X021326Y009040D01*
X021326Y008980D01*
X021266Y008920D01*
X021146Y008920D01*
X021086Y008980D01*
X020958Y008980D02*
X020898Y008920D01*
X020778Y008920D01*
X020718Y008980D01*
X020718Y009220D01*
X020778Y009280D01*
X020898Y009280D01*
X020958Y009220D01*
X021086Y009220D02*
X021146Y009280D01*
X021266Y009280D01*
X021266Y009100D02*
X021206Y009100D01*
X021146Y008530D02*
X021266Y008530D01*
X021326Y008470D01*
X021086Y008230D01*
X021146Y008170D01*
X021266Y008170D01*
X021326Y008230D01*
X021326Y008470D01*
X021455Y008470D02*
X021515Y008530D01*
X021635Y008530D01*
X021695Y008470D01*
X021455Y008230D01*
X021515Y008170D01*
X021635Y008170D01*
X021695Y008230D01*
X021695Y008470D01*
X021823Y008410D02*
X021823Y008170D01*
X022063Y008170D02*
X022063Y008350D01*
X022003Y008410D01*
X021823Y008410D01*
X021455Y008470D02*
X021455Y008230D01*
X021086Y008230D02*
X021086Y008470D01*
X021146Y008530D01*
X020838Y008530D02*
X020838Y008170D01*
X020718Y008170D02*
X020958Y008170D01*
X020718Y008410D02*
X020838Y008530D01*
X020456Y010170D02*
X020456Y010530D01*
X020336Y010530D02*
X020576Y010530D01*
X020208Y010530D02*
X019968Y010530D01*
X019968Y010170D01*
X019968Y010350D02*
X020088Y010350D01*
X020078Y006280D02*
X019838Y006280D01*
X019958Y006280D02*
X019958Y005920D01*
X020206Y005920D02*
X020386Y005920D01*
X020446Y005980D01*
X020446Y006220D01*
X020386Y006280D01*
X020206Y006280D01*
X020206Y005920D01*
X019709Y006280D02*
X019469Y006280D01*
X019469Y005920D01*
X019469Y006100D02*
X019589Y006100D01*
X019341Y006280D02*
X019101Y005920D01*
X018973Y006040D02*
X018733Y006040D01*
X018733Y005980D02*
X018733Y006100D01*
X018793Y006160D01*
X018913Y006160D01*
X018973Y006100D01*
X018973Y006040D01*
X018913Y005920D02*
X018793Y005920D01*
X018733Y005980D01*
X018607Y005920D02*
X018487Y005920D01*
X018547Y005920D02*
X018547Y006280D01*
X018487Y006280D01*
X018359Y006100D02*
X018359Y005980D01*
X018299Y005920D01*
X018119Y005920D01*
X018119Y005800D02*
X018119Y006160D01*
X018299Y006160D01*
X018359Y006100D01*
X017992Y006160D02*
X017932Y006160D01*
X017812Y006040D01*
X017812Y005920D02*
X017812Y006160D01*
X017684Y006100D02*
X017624Y006160D01*
X017504Y006160D01*
X017504Y006040D02*
X017684Y006040D01*
X017684Y006100D02*
X017684Y005920D01*
X017504Y005920D01*
X017444Y005980D01*
X017504Y006040D01*
X017315Y006100D02*
X017315Y005920D01*
X017195Y005920D02*
X017195Y006100D01*
X017255Y006160D01*
X017315Y006100D01*
X017195Y006100D02*
X017135Y006160D01*
X017075Y006160D01*
X017075Y005920D01*
X016947Y006040D02*
X016707Y006040D01*
X016707Y005980D02*
X016707Y006100D01*
X016767Y006160D01*
X016887Y006160D01*
X016947Y006100D01*
X016947Y006040D01*
X016887Y005920D02*
X016767Y005920D01*
X016707Y005980D01*
X016579Y006160D02*
X016459Y005920D01*
X016339Y006160D01*
X016211Y006100D02*
X016211Y006040D01*
X015970Y006040D01*
X015970Y005980D02*
X015970Y006100D01*
X016030Y006160D01*
X016150Y006160D01*
X016211Y006100D01*
X016150Y005920D02*
X016030Y005920D01*
X015970Y005980D01*
X015845Y005920D02*
X015785Y005980D01*
X015785Y006220D01*
X015725Y006160D02*
X015845Y006160D01*
X015597Y006160D02*
X015416Y006160D01*
X015356Y006100D01*
X015416Y006040D01*
X015537Y006040D01*
X015597Y005980D01*
X015537Y005920D01*
X015356Y005920D01*
X014988Y005920D02*
X015228Y006280D01*
X014860Y006100D02*
X014860Y005920D01*
X014740Y005920D02*
X014740Y006100D01*
X014800Y006160D01*
X014860Y006100D01*
X014740Y006100D02*
X014680Y006160D01*
X014620Y006160D01*
X014620Y005920D01*
X014492Y005980D02*
X014492Y006100D01*
X014432Y006160D01*
X014312Y006160D01*
X014252Y006100D01*
X014252Y005980D01*
X014312Y005920D01*
X014432Y005920D01*
X014492Y005980D01*
X014123Y005920D02*
X013943Y005920D01*
X013883Y005980D01*
X013883Y006100D01*
X013943Y006160D01*
X014123Y006160D01*
X013759Y005980D02*
X013759Y005920D01*
X013699Y005920D01*
X013699Y005980D01*
X013759Y005980D01*
X013571Y005980D02*
X013571Y006100D01*
X013511Y006160D01*
X013331Y006160D01*
X013331Y006280D02*
X013331Y005920D01*
X013511Y005920D01*
X013571Y005980D01*
X013203Y005920D02*
X013203Y006160D01*
X013203Y005920D02*
X013022Y005920D01*
X012962Y005980D01*
X012962Y006160D01*
X012834Y006100D02*
X012774Y006160D01*
X012654Y006160D01*
X012594Y006100D01*
X012469Y006160D02*
X012349Y006160D01*
X012409Y006220D02*
X012409Y005980D01*
X012469Y005920D01*
X012594Y005920D02*
X012594Y006280D01*
X012834Y006100D02*
X012834Y005920D01*
X012223Y005920D02*
X012103Y005920D01*
X012163Y005920D02*
X012163Y006160D01*
X012103Y006160D01*
X011975Y006160D02*
X011795Y006160D01*
X011735Y006100D01*
X011735Y005980D01*
X011795Y005920D01*
X011975Y005920D01*
X011975Y005860D02*
X011915Y005800D01*
X011855Y005800D01*
X011975Y005860D02*
X011975Y006160D01*
X012163Y006280D02*
X012163Y006340D01*
X011607Y006280D02*
X011366Y005920D01*
X010998Y005920D02*
X011238Y006280D01*
X010874Y006160D02*
X010874Y006100D01*
X010814Y006100D01*
X010814Y006160D01*
X010874Y006160D01*
X010874Y005980D02*
X010874Y005920D01*
X010814Y005920D01*
X010814Y005980D01*
X010874Y005980D01*
X010686Y005980D02*
X010626Y006040D01*
X010506Y006040D01*
X010446Y006100D01*
X010506Y006160D01*
X010686Y006160D01*
X010686Y005980D02*
X010626Y005920D01*
X010446Y005920D01*
X010317Y005980D02*
X010257Y005920D01*
X010077Y005920D01*
X010077Y005800D02*
X010077Y006160D01*
X010257Y006160D01*
X010317Y006100D01*
X010317Y005980D01*
X009952Y005920D02*
X009892Y005980D01*
X009892Y006220D01*
X009832Y006160D02*
X009952Y006160D01*
X009706Y006160D02*
X009586Y006160D01*
X009646Y006220D02*
X009646Y005980D01*
X009706Y005920D01*
X009458Y005920D02*
X009458Y006100D01*
X009398Y006160D01*
X009278Y006160D01*
X009218Y006100D01*
X009218Y006280D02*
X009218Y005920D01*
X009468Y005280D02*
X009468Y004920D01*
X009708Y004920D01*
X009836Y004920D02*
X010076Y004920D01*
X009956Y004920D02*
X009956Y005280D01*
X009836Y005160D01*
X009836Y004780D02*
X009836Y004420D01*
X010076Y004420D01*
X010205Y004420D02*
X010205Y004780D01*
X010385Y004780D01*
X010445Y004720D01*
X010445Y004600D01*
X010385Y004540D01*
X010205Y004540D01*
X010325Y004540D02*
X010445Y004420D01*
X010573Y004420D02*
X010573Y004780D01*
X010753Y004780D01*
X010813Y004720D01*
X010813Y004600D01*
X010753Y004540D01*
X010573Y004540D01*
X010693Y004540D02*
X010813Y004420D01*
X010941Y004420D02*
X011061Y004420D01*
X011001Y004420D02*
X011001Y004780D01*
X010941Y004780D02*
X011061Y004780D01*
X011187Y004780D02*
X011427Y004780D01*
X011307Y004780D02*
X011307Y004420D01*
X011555Y004420D02*
X011555Y004780D01*
X011795Y004780D01*
X011675Y004600D02*
X011555Y004600D01*
X011555Y004420D02*
X011795Y004420D01*
X010076Y004780D02*
X009836Y004780D01*
X009708Y004780D02*
X009468Y004780D01*
X009468Y004420D01*
X009468Y004600D02*
X009588Y004600D01*
X009836Y004600D02*
X009956Y004600D01*
X009030Y002530D02*
X008850Y002350D01*
X009090Y002350D01*
X009030Y002170D02*
X009030Y002530D01*
X008721Y002470D02*
X008661Y002530D01*
X008541Y002530D01*
X008481Y002470D01*
X008481Y002230D01*
X008541Y002170D01*
X008661Y002170D01*
X008721Y002230D01*
X008661Y002030D02*
X008721Y001970D01*
X008481Y001730D01*
X008541Y001670D01*
X008661Y001670D01*
X008721Y001730D01*
X008721Y001970D01*
X008661Y002030D02*
X008541Y002030D01*
X008481Y001970D01*
X008481Y001730D01*
X008353Y001670D02*
X008113Y001670D01*
X008233Y001670D02*
X008233Y002030D01*
X008113Y001910D01*
X008850Y001910D02*
X008850Y001670D01*
X009090Y001670D02*
X009090Y001850D01*
X009030Y001910D01*
X008850Y001910D01*
X013568Y001980D02*
X013628Y001920D01*
X013868Y001920D01*
X013928Y001980D01*
X013928Y002100D01*
X013868Y002160D01*
X013868Y002288D02*
X013928Y002348D01*
X013928Y002468D01*
X013868Y002529D01*
X013748Y002529D01*
X013688Y002468D01*
X013688Y002408D01*
X013748Y002288D01*
X013568Y002288D01*
X013568Y002529D01*
X013628Y002160D02*
X013568Y002100D01*
X013568Y001980D01*
X013748Y003170D02*
X013748Y003410D01*
X013688Y003538D02*
X013868Y003538D01*
X013928Y003598D01*
X013928Y003779D01*
X013688Y003779D01*
X013568Y003907D02*
X013568Y004147D01*
X013628Y004147D01*
X013868Y003907D01*
X013928Y003907D01*
X013928Y003350D02*
X013568Y003350D01*
X013748Y003170D01*
X015568Y003290D02*
X015688Y003170D01*
X015568Y003290D02*
X015928Y003290D01*
X015928Y003170D02*
X015928Y003410D01*
X015868Y003538D02*
X015628Y003538D01*
X015568Y003598D01*
X015568Y003718D01*
X015628Y003779D01*
X015868Y003538D01*
X015928Y003598D01*
X015928Y003718D01*
X015868Y003779D01*
X015628Y003779D01*
X015628Y003907D02*
X015568Y003967D01*
X015568Y004087D01*
X015628Y004147D01*
X015868Y003907D01*
X015928Y003967D01*
X015928Y004087D01*
X015868Y004147D01*
X015628Y004147D01*
X015688Y004275D02*
X015688Y004455D01*
X015748Y004515D01*
X015928Y004515D01*
X015928Y004275D02*
X015688Y004275D01*
X015628Y003907D02*
X015868Y003907D01*
X015868Y002529D02*
X015808Y002529D01*
X015748Y002468D01*
X015748Y002288D01*
X015868Y002288D01*
X015928Y002348D01*
X015928Y002468D01*
X015868Y002529D01*
X015628Y002408D02*
X015748Y002288D01*
X015628Y002408D02*
X015568Y002529D01*
X015628Y002160D02*
X015568Y002100D01*
X015568Y001980D01*
X015628Y001920D01*
X015868Y001920D01*
X015928Y001980D01*
X015928Y002100D01*
X015868Y002160D01*
X019318Y002362D02*
X019378Y002302D01*
X019438Y002302D01*
X019498Y002362D01*
X019498Y002482D01*
X019558Y002542D01*
X019618Y002542D01*
X019678Y002482D01*
X019678Y002362D01*
X019618Y002302D01*
X019318Y002362D02*
X019318Y002482D01*
X019378Y002542D01*
X019438Y002670D02*
X019318Y002790D01*
X019678Y002790D01*
X019678Y002670D02*
X019678Y002910D01*
X020468Y003670D02*
X020468Y004030D01*
X020648Y004030D01*
X020708Y003970D01*
X020708Y003850D01*
X020648Y003790D01*
X020468Y003790D01*
X020588Y003790D02*
X020708Y003670D01*
X020836Y003670D02*
X021076Y003670D01*
X020956Y003670D02*
X020956Y004030D01*
X020836Y003910D01*
X021718Y003910D02*
X021838Y004030D01*
X021838Y003670D01*
X021718Y003670D02*
X021958Y003670D01*
X022086Y003730D02*
X022326Y003970D01*
X022326Y003730D01*
X022266Y003670D01*
X022146Y003670D01*
X022086Y003730D01*
X022086Y003970D01*
X022146Y004030D01*
X022266Y004030D01*
X022326Y003970D01*
X022455Y004030D02*
X022455Y003670D01*
X022455Y003790D02*
X022635Y003910D01*
X022455Y003790D02*
X022635Y003670D01*
X022818Y004170D02*
X023178Y004410D01*
X023318Y004410D02*
X023618Y004410D01*
X023678Y004350D01*
X023678Y004230D01*
X023618Y004170D01*
X023318Y004170D01*
X023178Y004170D02*
X022818Y004410D01*
X022878Y004538D02*
X022818Y004598D01*
X022818Y004718D01*
X022878Y004779D01*
X022938Y004779D01*
X022998Y004718D01*
X023058Y004779D01*
X023118Y004779D01*
X023178Y004718D01*
X023178Y004598D01*
X023118Y004538D01*
X022998Y004658D02*
X022998Y004718D01*
X023318Y004658D02*
X023438Y004779D01*
X023678Y004779D01*
X023678Y004907D02*
X023318Y004907D01*
X023318Y005087D01*
X023378Y005147D01*
X023498Y005147D01*
X023558Y005087D01*
X023558Y004907D01*
X023558Y005027D02*
X023678Y005147D01*
X023678Y005395D02*
X023318Y005395D01*
X023318Y005275D02*
X023318Y005515D01*
X023498Y004779D02*
X023498Y004538D01*
X023438Y004538D02*
X023318Y004658D01*
X023438Y004538D02*
X023678Y004538D01*
X022042Y005980D02*
X022042Y006220D01*
X021982Y006280D01*
X021862Y006280D01*
X021802Y006220D01*
X021802Y005980D01*
X021862Y005920D01*
X021982Y005920D01*
X022042Y005980D01*
X021677Y005920D02*
X021556Y005920D01*
X021616Y005920D02*
X021616Y006280D01*
X021556Y006280D02*
X021677Y006280D01*
X021428Y006160D02*
X021428Y005920D01*
X021428Y006100D02*
X021188Y006100D01*
X021188Y006160D02*
X021188Y005920D01*
X021060Y005860D02*
X020820Y005860D01*
X020694Y005920D02*
X020574Y005920D01*
X020634Y005920D02*
X020634Y006280D01*
X020574Y006280D02*
X020694Y006280D01*
X021188Y006160D02*
X021308Y006280D01*
X021428Y006160D01*
X021838Y002030D02*
X021838Y001670D01*
X021718Y001670D02*
X021958Y001670D01*
X022086Y001670D02*
X022086Y002030D01*
X022266Y001910D02*
X022086Y001790D01*
X022266Y001670D01*
X021838Y002030D02*
X021718Y001910D01*
X021076Y001850D02*
X020896Y001850D01*
X020836Y001910D01*
X020836Y001970D01*
X020896Y002030D01*
X021016Y002030D01*
X021076Y001970D01*
X021076Y001730D01*
X021016Y001670D01*
X020896Y001670D01*
X020836Y001730D01*
X020708Y001670D02*
X020588Y001790D01*
X020648Y001790D02*
X020468Y001790D01*
X020468Y001670D02*
X020468Y002030D01*
X020648Y002030D01*
X020708Y001970D01*
X020708Y001850D01*
X020648Y001790D01*
X013090Y008170D02*
X013090Y008350D01*
X013030Y008410D01*
X012850Y008410D01*
X012850Y008170D01*
X012721Y008230D02*
X012721Y008470D01*
X012481Y008230D01*
X012541Y008170D01*
X012661Y008170D01*
X012721Y008230D01*
X012481Y008230D02*
X012481Y008470D01*
X012541Y008530D01*
X012661Y008530D01*
X012721Y008470D01*
X012353Y008470D02*
X012353Y008230D01*
X012293Y008170D01*
X012173Y008170D01*
X012113Y008230D01*
X012353Y008470D01*
X012293Y008530D01*
X012173Y008530D01*
X012113Y008470D01*
X012113Y008230D01*
X011985Y008170D02*
X011745Y008170D01*
X011865Y008170D02*
X011865Y008530D01*
X011745Y008410D01*
X012481Y008980D02*
X012541Y008920D01*
X012661Y008920D01*
X012721Y008980D01*
X012850Y008980D02*
X012850Y008920D01*
X012850Y008980D02*
X013090Y009220D01*
X013090Y009280D01*
X012850Y009280D01*
X012721Y009220D02*
X012661Y009280D01*
X012541Y009280D01*
X012481Y009220D01*
X012481Y008980D01*
X009678Y010670D02*
X009318Y010670D01*
X009438Y010790D01*
X009318Y010910D01*
X009678Y010910D01*
X009618Y011038D02*
X009678Y011098D01*
X009678Y011218D01*
X009618Y011279D01*
X009678Y011407D02*
X009318Y011407D01*
X009318Y011587D01*
X009378Y011647D01*
X009498Y011647D01*
X009558Y011587D01*
X009558Y011407D01*
X009378Y011279D02*
X009318Y011218D01*
X009318Y011098D01*
X009378Y011038D01*
X009618Y011038D01*
X009178Y011096D02*
X009118Y011156D01*
X009178Y011096D02*
X009178Y010976D01*
X009118Y010916D01*
X008878Y010916D01*
X008818Y010976D01*
X008818Y011096D01*
X008878Y011156D01*
X008938Y011284D02*
X008818Y011404D01*
X009178Y011404D01*
X009178Y011284D02*
X009178Y011524D01*
X009438Y011775D02*
X009318Y011895D01*
X009678Y011895D01*
X009678Y011775D02*
X009678Y012015D01*
X009678Y012143D02*
X009618Y012143D01*
X009378Y012383D01*
X009318Y012383D01*
X009318Y012143D01*
X009378Y012512D02*
X009318Y012572D01*
X009318Y012692D01*
X009378Y012752D01*
X009618Y012512D01*
X009678Y012572D01*
X009678Y012692D01*
X009618Y012752D01*
X009378Y012752D01*
X009378Y012880D02*
X009318Y012940D01*
X009318Y013060D01*
X009378Y013120D01*
X009438Y013120D01*
X009678Y012880D01*
X009678Y013120D01*
X009498Y013248D02*
X009498Y013488D01*
X009618Y013617D02*
X009678Y013677D01*
X009678Y013797D01*
X009618Y013857D01*
X009558Y013857D01*
X009498Y013797D01*
X009498Y013737D01*
X009498Y013797D02*
X009438Y013857D01*
X009378Y013857D01*
X009318Y013797D01*
X009318Y013677D01*
X009378Y013617D01*
X009618Y013985D02*
X009618Y014045D01*
X009678Y014045D01*
X009678Y013985D01*
X009618Y013985D01*
X009618Y014169D02*
X009678Y014229D01*
X009678Y014349D01*
X009618Y014409D01*
X009558Y014409D01*
X009498Y014349D01*
X009498Y014289D01*
X009498Y014349D02*
X009438Y014409D01*
X009378Y014409D01*
X009318Y014349D01*
X009318Y014229D01*
X009378Y014169D01*
X008826Y014170D02*
X008826Y014410D01*
X008586Y014410D02*
X008586Y014230D01*
X008646Y014170D01*
X008826Y014170D01*
X008458Y014170D02*
X008218Y014170D01*
X008338Y014170D02*
X008338Y014530D01*
X008218Y014410D01*
X007576Y014410D02*
X007576Y014470D01*
X007516Y014530D01*
X007396Y014530D01*
X007336Y014470D01*
X007208Y014470D02*
X007148Y014530D01*
X007028Y014530D01*
X006968Y014470D01*
X006968Y014230D01*
X007028Y014170D01*
X007148Y014170D01*
X007208Y014230D01*
X007336Y014170D02*
X007576Y014410D01*
X007576Y014170D02*
X007336Y014170D01*
X009378Y012512D02*
X009618Y012512D01*
X009178Y010790D02*
X009178Y010670D01*
X009178Y010730D02*
X008818Y010730D01*
X008818Y010670D02*
X008818Y010790D01*
X008338Y009530D02*
X008218Y009410D01*
X008338Y009530D02*
X008338Y009170D01*
X008218Y009170D02*
X008458Y009170D01*
X008586Y009230D02*
X008586Y009410D01*
X008586Y009230D02*
X008646Y009170D01*
X008826Y009170D01*
X008826Y009410D01*
X007576Y009170D02*
X007336Y009170D01*
X007456Y009170D02*
X007456Y009530D01*
X007336Y009410D01*
X007208Y009470D02*
X007148Y009530D01*
X007028Y009530D01*
X006968Y009470D01*
X006968Y009230D01*
X007028Y009170D01*
X007148Y009170D01*
X007208Y009230D01*
X007208Y008530D02*
X006968Y008170D01*
X007208Y008170D02*
X006968Y008530D01*
X007336Y008470D02*
X007396Y008530D01*
X007516Y008530D01*
X007576Y008470D01*
X007576Y008410D01*
X007336Y008170D01*
X007576Y008170D01*
X007516Y016170D02*
X007396Y016170D01*
X007336Y016230D01*
X007208Y016170D02*
X007088Y016290D01*
X007148Y016290D02*
X006968Y016290D01*
X006968Y016170D02*
X006968Y016530D01*
X007148Y016530D01*
X007208Y016470D01*
X007208Y016350D01*
X007148Y016290D01*
X007336Y016470D02*
X007396Y016530D01*
X007516Y016530D01*
X007576Y016470D01*
X007576Y016410D01*
X007516Y016350D01*
X007576Y016290D01*
X007576Y016230D01*
X007516Y016170D01*
X007516Y016350D02*
X007456Y016350D01*
X008218Y016230D02*
X008458Y016470D01*
X008458Y016230D01*
X008398Y016170D01*
X008278Y016170D01*
X008218Y016230D01*
X008218Y016470D01*
X008278Y016530D01*
X008398Y016530D01*
X008458Y016470D01*
X008586Y016530D02*
X008586Y016170D01*
X008586Y016290D02*
X008766Y016290D01*
X008826Y016350D01*
X008826Y016470D01*
X008766Y016530D01*
X008586Y016530D01*
X008706Y016290D02*
X008826Y016170D01*
X008821Y018020D02*
X008821Y018380D01*
X008941Y018380D02*
X008701Y018380D01*
X008701Y018520D02*
X008701Y018880D01*
X008821Y018760D01*
X008941Y018880D01*
X008941Y018520D01*
X009069Y018580D02*
X009129Y018520D01*
X009250Y018520D01*
X009310Y018580D01*
X009310Y018820D01*
X009250Y018880D01*
X009129Y018880D01*
X009069Y018820D01*
X009069Y018580D01*
X009310Y018380D02*
X009310Y018020D01*
X009129Y018020D01*
X009069Y018080D01*
X009069Y018200D01*
X009129Y018260D01*
X009310Y018260D01*
X009498Y018320D02*
X009498Y018020D01*
X009558Y018020D02*
X009438Y018020D01*
X009498Y018320D02*
X009558Y018380D01*
X009618Y018380D01*
X009678Y018320D01*
X009678Y018520D02*
X009498Y018520D01*
X009438Y018580D01*
X009438Y018700D01*
X009498Y018760D01*
X009678Y018760D01*
X009678Y018880D02*
X009678Y018520D01*
X008941Y018140D02*
X008821Y018020D01*
X008573Y018520D02*
X008333Y018520D01*
X008205Y018520D02*
X008024Y018520D01*
X007964Y018580D01*
X007964Y018700D01*
X008024Y018760D01*
X008205Y018760D01*
X008205Y018880D02*
X008205Y018520D01*
X008453Y018700D02*
X008573Y018700D01*
X008573Y018880D02*
X008333Y018880D01*
X008573Y018880D02*
X008573Y018520D01*
X008085Y018760D02*
X007964Y018880D01*
D14*
X019198Y010150D03*
D15*
X018995Y009710D02*
X018995Y007590D01*
X014901Y007590D01*
X014901Y009710D01*
X018995Y009710D01*
X018430Y009350D02*
X018432Y009376D01*
X018438Y009402D01*
X018447Y009427D01*
X018460Y009450D01*
X018476Y009471D01*
X018495Y009489D01*
X018517Y009505D01*
X018540Y009517D01*
X018565Y009525D01*
X018591Y009530D01*
X018618Y009531D01*
X018644Y009528D01*
X018669Y009521D01*
X018694Y009511D01*
X018716Y009497D01*
X018737Y009480D01*
X018754Y009461D01*
X018769Y009439D01*
X018780Y009415D01*
X018788Y009389D01*
X018792Y009363D01*
X018792Y009337D01*
X018788Y009311D01*
X018780Y009285D01*
X018769Y009261D01*
X018754Y009239D01*
X018737Y009220D01*
X018716Y009203D01*
X018694Y009189D01*
X018669Y009179D01*
X018644Y009172D01*
X018618Y009169D01*
X018591Y009170D01*
X018565Y009175D01*
X018540Y009183D01*
X018517Y009195D01*
X018495Y009211D01*
X018476Y009229D01*
X018460Y009250D01*
X018447Y009273D01*
X018438Y009298D01*
X018432Y009324D01*
X018430Y009350D01*
X019598Y008810D02*
X019598Y008490D01*
X020298Y008490D02*
X020298Y008810D01*
X021288Y005000D02*
X021608Y005000D01*
X021608Y004300D02*
X021288Y004300D01*
X021288Y003000D02*
X021608Y003000D01*
X021608Y002300D02*
X021288Y002300D01*
X015298Y002990D02*
X015298Y003310D01*
X014598Y003310D02*
X014598Y002990D01*
X013298Y002990D02*
X013298Y003310D01*
X012598Y003310D02*
X012598Y002990D01*
X010608Y003300D02*
X010288Y003300D01*
X010288Y004000D02*
X010608Y004000D01*
X010608Y002500D02*
X010288Y002500D01*
X010288Y001800D02*
X010608Y001800D01*
X013598Y008490D02*
X013598Y008810D01*
X014298Y008810D02*
X014298Y008490D01*
X008108Y009800D02*
X007788Y009800D01*
X007788Y010500D02*
X008108Y010500D01*
X008108Y014800D02*
X007788Y014800D01*
X007788Y015500D02*
X008108Y015500D01*
X008108Y016800D02*
X007788Y016800D01*
X007788Y017500D02*
X008108Y017500D01*
X009948Y017400D02*
X010198Y017650D01*
X010698Y017650D01*
X010948Y017400D01*
X010948Y015900D01*
X011198Y015650D01*
X011698Y015650D01*
X011948Y015900D01*
X012198Y015650D01*
X012698Y015650D01*
X012948Y015900D01*
X012948Y017400D01*
X012698Y017650D01*
X012198Y017650D01*
X011948Y017400D01*
X011948Y015900D01*
X010948Y015900D02*
X010698Y015650D01*
X010198Y015650D01*
X009948Y015900D01*
X009948Y017400D01*
X010948Y017400D02*
X011198Y017650D01*
X011698Y017650D01*
X011948Y017400D01*
X013848Y016310D02*
X013848Y015990D01*
X014548Y015990D02*
X014548Y016310D01*
X015848Y016310D02*
X015848Y015990D01*
X016548Y015990D02*
X016548Y016310D01*
X017848Y016310D02*
X017848Y015990D01*
X018548Y015990D02*
X018548Y016310D01*
X019448Y016900D02*
X020948Y016900D01*
X020948Y016950D01*
X021448Y016950D01*
X021448Y016900D01*
X021648Y016900D01*
X021648Y017300D01*
X021648Y017400D01*
X019948Y017400D01*
X019948Y019900D01*
X024948Y019900D01*
X024948Y017400D01*
X023248Y017400D01*
X023248Y017300D01*
X023248Y016900D01*
X021648Y016900D01*
X021648Y017400D02*
X021648Y017700D01*
X023248Y017700D01*
X023248Y017400D01*
X023248Y016900D02*
X025448Y016900D01*
X025448Y020400D01*
X024948Y020400D01*
X024948Y020500D01*
X024448Y020500D01*
X024448Y020400D01*
X022698Y020400D01*
X022698Y020500D01*
X022198Y020500D01*
X022198Y020400D01*
X020448Y020400D01*
X020448Y020500D01*
X019948Y020500D01*
X019948Y020400D01*
X019448Y020400D01*
X019448Y016900D01*
X020098Y015310D02*
X020098Y014990D01*
X020798Y014990D02*
X020798Y015310D01*
X022098Y015310D02*
X022098Y014990D01*
X022798Y014990D02*
X022798Y015310D01*
X023848Y015310D02*
X023848Y014990D01*
X024548Y014990D02*
X024548Y015310D01*
D16*
X025048Y017300D02*
X023248Y017300D01*
X021648Y017300D02*
X019848Y017300D01*
X019848Y020000D01*
X025048Y020000D01*
X025048Y017300D01*
X018931Y009650D02*
X018931Y007650D01*
X014964Y007650D01*
X014964Y009650D01*
X018931Y009650D01*
D17*
X023948Y007400D02*
X023948Y006900D01*
X024198Y006650D01*
X023948Y006400D01*
X023948Y005900D01*
X024198Y005650D01*
X023948Y005400D01*
X023948Y004900D01*
X024198Y004650D01*
X023948Y004400D01*
X023948Y003900D01*
X024198Y003650D01*
X023948Y003400D01*
X023948Y002900D01*
X024198Y002650D01*
X023948Y002400D01*
X023948Y001900D01*
X024198Y001650D01*
X024698Y001650D01*
X024948Y001900D01*
X024948Y002400D01*
X024698Y002650D01*
X024948Y002900D01*
X024948Y003400D01*
X024698Y003650D01*
X024948Y003900D01*
X024948Y004400D01*
X024698Y004650D01*
X024948Y004900D01*
X024948Y005400D01*
X024698Y005650D01*
X024948Y005900D01*
X024948Y006400D01*
X024698Y006650D01*
X024948Y006900D01*
X024948Y007400D01*
X024698Y007650D01*
X024198Y007650D01*
X023948Y007400D01*
X018798Y003850D02*
X017098Y003850D01*
X016748Y003050D02*
X016748Y002257D01*
X017098Y001450D02*
X018798Y001450D01*
X019148Y002245D02*
X019148Y003050D01*
X017248Y002650D02*
X017250Y002702D01*
X017256Y002754D01*
X017266Y002806D01*
X017279Y002856D01*
X017296Y002906D01*
X017317Y002954D01*
X017342Y003000D01*
X017370Y003044D01*
X017401Y003086D01*
X017435Y003126D01*
X017472Y003163D01*
X017512Y003197D01*
X017554Y003228D01*
X017598Y003256D01*
X017644Y003281D01*
X017692Y003302D01*
X017742Y003319D01*
X017792Y003332D01*
X017844Y003342D01*
X017896Y003348D01*
X017948Y003350D01*
X018000Y003348D01*
X018052Y003342D01*
X018104Y003332D01*
X018154Y003319D01*
X018204Y003302D01*
X018252Y003281D01*
X018298Y003256D01*
X018342Y003228D01*
X018384Y003197D01*
X018424Y003163D01*
X018461Y003126D01*
X018495Y003086D01*
X018526Y003044D01*
X018554Y003000D01*
X018579Y002954D01*
X018600Y002906D01*
X018617Y002856D01*
X018630Y002806D01*
X018640Y002754D01*
X018646Y002702D01*
X018648Y002650D01*
X018646Y002598D01*
X018640Y002546D01*
X018630Y002494D01*
X018617Y002444D01*
X018600Y002394D01*
X018579Y002346D01*
X018554Y002300D01*
X018526Y002256D01*
X018495Y002214D01*
X018461Y002174D01*
X018424Y002137D01*
X018384Y002103D01*
X018342Y002072D01*
X018298Y002044D01*
X018252Y002019D01*
X018204Y001998D01*
X018154Y001981D01*
X018104Y001968D01*
X018052Y001958D01*
X018000Y001952D01*
X017948Y001950D01*
X017896Y001952D01*
X017844Y001958D01*
X017792Y001968D01*
X017742Y001981D01*
X017692Y001998D01*
X017644Y002019D01*
X017598Y002044D01*
X017554Y002072D01*
X017512Y002103D01*
X017472Y002137D01*
X017435Y002174D01*
X017401Y002214D01*
X017370Y002256D01*
X017342Y002300D01*
X017317Y002346D01*
X017296Y002394D01*
X017279Y002444D01*
X017266Y002494D01*
X017256Y002546D01*
X017250Y002598D01*
X017248Y002650D01*
X007542Y003325D02*
X007542Y006475D01*
X006360Y007262D02*
X005967Y007262D01*
X005967Y002538D01*
X006360Y002538D01*
X008548Y011605D02*
X008548Y011700D01*
X009098Y011825D02*
X009098Y013475D01*
X008548Y013600D02*
X008548Y013695D01*
X008548Y012690D02*
X008548Y012610D01*
X009098Y011826D02*
X009049Y011787D01*
X008998Y011750D01*
X008945Y011717D01*
X008891Y011687D01*
X008834Y011661D01*
X008776Y011638D01*
X008717Y011618D01*
X008656Y011602D01*
X008595Y011590D01*
X008533Y011581D01*
X008471Y011576D01*
X008408Y011575D01*
X008346Y011578D01*
X008283Y011584D01*
X008222Y011594D01*
X008161Y011608D01*
X008101Y011625D01*
X008042Y011646D01*
X007984Y011670D01*
X007928Y011698D01*
X007874Y011729D01*
X007822Y011764D01*
X007772Y011801D01*
X007724Y011841D01*
X007679Y011885D01*
X007636Y011930D01*
X007596Y011979D01*
X007560Y012029D01*
X007526Y012082D01*
X007495Y012136D01*
X007468Y012193D01*
X007445Y012250D01*
X007445Y013050D02*
X007468Y013107D01*
X007495Y013164D01*
X007526Y013218D01*
X007560Y013271D01*
X007596Y013321D01*
X007636Y013370D01*
X007679Y013415D01*
X007724Y013459D01*
X007772Y013499D01*
X007822Y013536D01*
X007874Y013571D01*
X007928Y013602D01*
X007984Y013630D01*
X008042Y013654D01*
X008101Y013675D01*
X008161Y013692D01*
X008222Y013706D01*
X008283Y013716D01*
X008346Y013722D01*
X008408Y013725D01*
X008471Y013724D01*
X008533Y013719D01*
X008595Y013710D01*
X008656Y013698D01*
X008717Y013682D01*
X008776Y013662D01*
X008834Y013639D01*
X008891Y013613D01*
X008945Y013583D01*
X008998Y013550D01*
X009049Y013513D01*
X009098Y013474D01*
D18*
X015042Y019155D02*
X014952Y019155D01*
X014953Y019155D02*
X014951Y019209D01*
X014945Y019262D01*
X014935Y019315D01*
X014921Y019367D01*
X014904Y019418D01*
X014883Y019467D01*
X014859Y019515D01*
X014831Y019561D01*
X014800Y019605D01*
X014766Y019647D01*
X014730Y019686D01*
X014690Y019723D01*
X014648Y019756D01*
X014604Y019787D01*
X014558Y019814D01*
X014600Y019893D01*
X014649Y019865D01*
X014695Y019833D01*
X014740Y019798D01*
X014782Y019761D01*
X014822Y019720D01*
X014858Y019677D01*
X014892Y019632D01*
X014923Y019585D01*
X014950Y019535D01*
X014974Y019484D01*
X014995Y019432D01*
X015012Y019378D01*
X015025Y019323D01*
X015035Y019268D01*
X015041Y019211D01*
X015043Y019155D01*
X015034Y019155D01*
X015032Y019211D01*
X015026Y019266D01*
X015016Y019321D01*
X015003Y019376D01*
X014986Y019429D01*
X014966Y019481D01*
X014942Y019531D01*
X014915Y019580D01*
X014885Y019627D01*
X014851Y019672D01*
X014815Y019714D01*
X014776Y019754D01*
X014734Y019791D01*
X014690Y019826D01*
X014644Y019857D01*
X014596Y019885D01*
X014592Y019877D01*
X014639Y019849D01*
X014685Y019818D01*
X014728Y019784D01*
X014770Y019748D01*
X014808Y019708D01*
X014844Y019666D01*
X014877Y019622D01*
X014907Y019576D01*
X014934Y019527D01*
X014957Y019477D01*
X014978Y019426D01*
X014994Y019373D01*
X015007Y019320D01*
X015017Y019265D01*
X015023Y019210D01*
X015025Y019155D01*
X015016Y019155D01*
X015014Y019210D01*
X015008Y019264D01*
X014999Y019318D01*
X014986Y019371D01*
X014969Y019423D01*
X014949Y019474D01*
X014926Y019523D01*
X014899Y019571D01*
X014870Y019617D01*
X014837Y019661D01*
X014802Y019702D01*
X014763Y019741D01*
X014723Y019778D01*
X014680Y019811D01*
X014634Y019842D01*
X014587Y019869D01*
X014583Y019861D01*
X014630Y019834D01*
X014674Y019804D01*
X014717Y019771D01*
X014757Y019735D01*
X014795Y019696D01*
X014830Y019655D01*
X014862Y019612D01*
X014892Y019566D01*
X014918Y019519D01*
X014941Y019470D01*
X014961Y019420D01*
X014977Y019368D01*
X014990Y019316D01*
X014999Y019263D01*
X015005Y019209D01*
X015007Y019155D01*
X014998Y019155D01*
X014996Y019208D01*
X014990Y019261D01*
X014981Y019314D01*
X014968Y019366D01*
X014952Y019417D01*
X014933Y019467D01*
X014910Y019515D01*
X014884Y019562D01*
X014855Y019606D01*
X014823Y019649D01*
X014788Y019690D01*
X014751Y019728D01*
X014711Y019764D01*
X014669Y019797D01*
X014625Y019827D01*
X014579Y019854D01*
X014575Y019846D01*
X014620Y019819D01*
X014664Y019789D01*
X014705Y019757D01*
X014745Y019722D01*
X014782Y019684D01*
X014816Y019644D01*
X014848Y019601D01*
X014876Y019557D01*
X014902Y019511D01*
X014924Y019463D01*
X014944Y019414D01*
X014960Y019364D01*
X014972Y019312D01*
X014981Y019260D01*
X014987Y019208D01*
X014989Y019155D01*
X014980Y019155D01*
X014978Y019211D01*
X014971Y019266D01*
X014961Y019321D01*
X014947Y019375D01*
X014929Y019427D01*
X014908Y019479D01*
X014882Y019528D01*
X014854Y019576D01*
X014822Y019622D01*
X014787Y019665D01*
X014749Y019705D01*
X014708Y019743D01*
X014664Y019778D01*
X014618Y019809D01*
X014570Y019838D01*
X014566Y019830D01*
X014614Y019802D01*
X014659Y019771D01*
X014702Y019736D01*
X014742Y019699D01*
X014780Y019659D01*
X014815Y019616D01*
X014846Y019571D01*
X014875Y019524D01*
X014899Y019475D01*
X014921Y019424D01*
X014938Y019372D01*
X014952Y019319D01*
X014962Y019265D01*
X014969Y019210D01*
X014971Y019155D01*
X014962Y019155D01*
X014960Y019209D01*
X014954Y019263D01*
X014944Y019317D01*
X014930Y019369D01*
X014912Y019421D01*
X014891Y019471D01*
X014867Y019520D01*
X014839Y019566D01*
X014807Y019611D01*
X014773Y019653D01*
X014736Y019692D01*
X014696Y019729D01*
X014654Y019763D01*
X014609Y019794D01*
X014562Y019822D01*
X013775Y019881D02*
X013820Y019803D01*
X013819Y019803D02*
X013775Y019775D01*
X013733Y019744D01*
X013693Y019711D01*
X013655Y019675D01*
X013620Y019636D01*
X013588Y019595D01*
X013558Y019551D01*
X013532Y019506D01*
X013509Y019459D01*
X013489Y019411D01*
X013473Y019361D01*
X013460Y019311D01*
X013451Y019259D01*
X013445Y019207D01*
X013443Y019155D01*
X013354Y019154D01*
X013353Y019155D01*
X013355Y019210D01*
X013361Y019264D01*
X013370Y019319D01*
X013383Y019372D01*
X013399Y019424D01*
X013418Y019476D01*
X013441Y019526D01*
X013467Y019574D01*
X013496Y019621D01*
X013528Y019665D01*
X013563Y019708D01*
X013601Y019748D01*
X013641Y019785D01*
X013683Y019820D01*
X013728Y019852D01*
X013774Y019881D01*
X013779Y019873D01*
X013733Y019845D01*
X013689Y019813D01*
X013647Y019778D01*
X013607Y019741D01*
X013570Y019702D01*
X013535Y019660D01*
X013504Y019616D01*
X013475Y019570D01*
X013449Y019522D01*
X013427Y019472D01*
X013407Y019422D01*
X013391Y019370D01*
X013379Y019317D01*
X013370Y019263D01*
X013364Y019209D01*
X013362Y019155D01*
X013371Y019155D01*
X013373Y019209D01*
X013379Y019262D01*
X013388Y019315D01*
X013400Y019367D01*
X013416Y019419D01*
X013435Y019469D01*
X013457Y019518D01*
X013483Y019565D01*
X013511Y019611D01*
X013543Y019654D01*
X013577Y019696D01*
X013613Y019735D01*
X013653Y019772D01*
X013694Y019806D01*
X013738Y019837D01*
X013783Y019866D01*
X013788Y019858D01*
X013740Y019828D01*
X013694Y019794D01*
X013651Y019758D01*
X013610Y019718D01*
X013572Y019676D01*
X013537Y019632D01*
X013505Y019585D01*
X013477Y019536D01*
X013452Y019485D01*
X013430Y019432D01*
X013413Y019379D01*
X013399Y019324D01*
X013389Y019268D01*
X013382Y019212D01*
X013380Y019155D01*
X013389Y019155D01*
X013391Y019211D01*
X013397Y019267D01*
X013407Y019322D01*
X013421Y019376D01*
X013439Y019429D01*
X013460Y019481D01*
X013485Y019532D01*
X013513Y019580D01*
X013544Y019626D01*
X013579Y019671D01*
X013616Y019712D01*
X013657Y019751D01*
X013699Y019787D01*
X013745Y019820D01*
X013792Y019850D01*
X013797Y019842D01*
X013750Y019813D01*
X013705Y019780D01*
X013663Y019744D01*
X013623Y019706D01*
X013586Y019665D01*
X013551Y019621D01*
X013520Y019575D01*
X013493Y019527D01*
X013468Y019478D01*
X013447Y019426D01*
X013430Y019374D01*
X013416Y019320D01*
X013406Y019265D01*
X013400Y019210D01*
X013398Y019155D01*
X013407Y019155D01*
X013409Y019210D01*
X013415Y019264D01*
X013425Y019318D01*
X013439Y019371D01*
X013456Y019423D01*
X013476Y019474D01*
X013501Y019523D01*
X013528Y019570D01*
X013559Y019616D01*
X013592Y019659D01*
X013629Y019700D01*
X013669Y019738D01*
X013711Y019773D01*
X013755Y019805D01*
X013801Y019834D01*
X013806Y019826D01*
X013760Y019798D01*
X013716Y019766D01*
X013675Y019731D01*
X013636Y019693D01*
X013599Y019653D01*
X013566Y019611D01*
X013536Y019566D01*
X013508Y019519D01*
X013485Y019470D01*
X013464Y019420D01*
X013447Y019369D01*
X013434Y019316D01*
X013424Y019263D01*
X013418Y019209D01*
X013416Y019155D01*
X013425Y019155D01*
X013427Y019208D01*
X013433Y019262D01*
X013443Y019314D01*
X013456Y019366D01*
X013473Y019417D01*
X013493Y019467D01*
X013516Y019515D01*
X013543Y019561D01*
X013573Y019605D01*
X013606Y019647D01*
X013642Y019687D01*
X013681Y019724D01*
X013722Y019759D01*
X013765Y019790D01*
X013810Y019819D01*
X013815Y019811D01*
X013770Y019783D01*
X013727Y019752D01*
X013687Y019718D01*
X013649Y019681D01*
X013613Y019642D01*
X013581Y019600D01*
X013551Y019556D01*
X013524Y019510D01*
X013501Y019463D01*
X013481Y019414D01*
X013464Y019364D01*
X013451Y019312D01*
X013442Y019260D01*
X013436Y019208D01*
X013434Y019155D01*
X013354Y019146D02*
X013444Y019146D01*
X013443Y019145D02*
X013445Y019091D01*
X013451Y019038D01*
X013461Y018985D01*
X013475Y018933D01*
X013492Y018882D01*
X013513Y018832D01*
X013537Y018784D01*
X013565Y018738D01*
X013596Y018694D01*
X013630Y018653D01*
X013667Y018613D01*
X013706Y018577D01*
X013649Y018509D01*
X013648Y018508D01*
X013607Y018546D01*
X013569Y018586D01*
X013533Y018629D01*
X013500Y018674D01*
X013470Y018721D01*
X013444Y018769D01*
X013420Y018820D01*
X013400Y018872D01*
X013384Y018925D01*
X013370Y018979D01*
X013361Y019034D01*
X013355Y019089D01*
X013353Y019145D01*
X013362Y019145D01*
X013364Y019090D01*
X013370Y019035D01*
X013379Y018981D01*
X013392Y018927D01*
X013409Y018875D01*
X013428Y018823D01*
X013452Y018773D01*
X013478Y018725D01*
X013508Y018679D01*
X013540Y018634D01*
X013575Y018592D01*
X013614Y018552D01*
X013654Y018515D01*
X013660Y018522D01*
X013620Y018559D01*
X013582Y018598D01*
X013547Y018640D01*
X013515Y018684D01*
X013486Y018730D01*
X013460Y018778D01*
X013437Y018827D01*
X013417Y018878D01*
X013401Y018930D01*
X013388Y018983D01*
X013379Y019036D01*
X013373Y019091D01*
X013371Y019145D01*
X013380Y019145D01*
X013382Y019091D01*
X013388Y019038D01*
X013397Y018985D01*
X013410Y018932D01*
X013426Y018881D01*
X013445Y018830D01*
X013468Y018782D01*
X013493Y018734D01*
X013522Y018689D01*
X013554Y018645D01*
X013589Y018604D01*
X013626Y018565D01*
X013666Y018529D01*
X013672Y018536D01*
X013632Y018572D01*
X013595Y018610D01*
X013561Y018651D01*
X013530Y018694D01*
X013501Y018739D01*
X013476Y018786D01*
X013453Y018834D01*
X013434Y018884D01*
X013418Y018935D01*
X013406Y018986D01*
X013397Y019039D01*
X013391Y019092D01*
X013389Y019145D01*
X013398Y019145D01*
X013400Y019092D01*
X013406Y019040D01*
X013415Y018988D01*
X013427Y018937D01*
X013443Y018887D01*
X013462Y018837D01*
X013484Y018790D01*
X013509Y018743D01*
X013537Y018699D01*
X013568Y018657D01*
X013602Y018616D01*
X013639Y018578D01*
X013677Y018543D01*
X013683Y018549D01*
X013645Y018585D01*
X013609Y018622D01*
X013575Y018662D01*
X013545Y018704D01*
X013517Y018748D01*
X013492Y018794D01*
X013470Y018841D01*
X013451Y018890D01*
X013436Y018939D01*
X013423Y018990D01*
X013415Y019041D01*
X013409Y019093D01*
X013407Y019145D01*
X013416Y019145D01*
X013418Y019089D01*
X013425Y019034D01*
X013435Y018979D01*
X013449Y018925D01*
X013467Y018872D01*
X013489Y018821D01*
X013514Y018771D01*
X013543Y018723D01*
X013575Y018678D01*
X013610Y018635D01*
X013648Y018594D01*
X013689Y018556D01*
X013695Y018563D01*
X013654Y018600D01*
X013617Y018641D01*
X013582Y018683D01*
X013550Y018728D01*
X013522Y018776D01*
X013497Y018825D01*
X013475Y018876D01*
X013458Y018928D01*
X013444Y018981D01*
X013434Y019035D01*
X013427Y019090D01*
X013425Y019145D01*
X013434Y019145D01*
X013436Y019091D01*
X013442Y019037D01*
X013452Y018983D01*
X013466Y018930D01*
X013484Y018879D01*
X013505Y018829D01*
X013530Y018780D01*
X013558Y018733D01*
X013589Y018689D01*
X013623Y018647D01*
X013661Y018607D01*
X013701Y018570D01*
X014742Y018505D02*
X014685Y018574D01*
X014685Y018573D02*
X014725Y018610D01*
X014763Y018649D01*
X014797Y018691D01*
X014829Y018735D01*
X014857Y018781D01*
X014882Y018830D01*
X014903Y018880D01*
X014921Y018931D01*
X014934Y018984D01*
X014944Y019037D01*
X014951Y019091D01*
X014953Y019145D01*
X015042Y019146D01*
X015043Y019145D01*
X015041Y019089D01*
X015035Y019033D01*
X015025Y018978D01*
X015012Y018923D01*
X014995Y018870D01*
X014975Y018817D01*
X014951Y018766D01*
X014924Y018717D01*
X014893Y018670D01*
X014860Y018625D01*
X014824Y018582D01*
X014785Y018542D01*
X014743Y018504D01*
X014737Y018511D01*
X014778Y018548D01*
X014817Y018588D01*
X014853Y018630D01*
X014886Y018675D01*
X014916Y018722D01*
X014943Y018770D01*
X014966Y018821D01*
X014987Y018873D01*
X015003Y018926D01*
X015016Y018980D01*
X015026Y019034D01*
X015032Y019089D01*
X015034Y019145D01*
X015025Y019145D01*
X015023Y019090D01*
X015017Y019035D01*
X015008Y018981D01*
X014995Y018928D01*
X014978Y018876D01*
X014958Y018824D01*
X014935Y018775D01*
X014908Y018726D01*
X014879Y018680D01*
X014846Y018636D01*
X014810Y018594D01*
X014772Y018555D01*
X014731Y018518D01*
X014726Y018525D01*
X014766Y018561D01*
X014804Y018600D01*
X014839Y018642D01*
X014871Y018685D01*
X014901Y018731D01*
X014927Y018779D01*
X014950Y018828D01*
X014970Y018878D01*
X014986Y018930D01*
X014999Y018983D01*
X015008Y019037D01*
X015014Y019091D01*
X015016Y019145D01*
X015007Y019145D01*
X015005Y019091D01*
X014999Y019038D01*
X014990Y018985D01*
X014977Y018933D01*
X014961Y018881D01*
X014942Y018831D01*
X014919Y018783D01*
X014893Y018736D01*
X014864Y018690D01*
X014832Y018647D01*
X014797Y018606D01*
X014760Y018568D01*
X014720Y018532D01*
X014714Y018539D01*
X014753Y018574D01*
X014790Y018612D01*
X014825Y018653D01*
X014856Y018696D01*
X014885Y018740D01*
X014911Y018787D01*
X014933Y018835D01*
X014953Y018884D01*
X014969Y018935D01*
X014981Y018987D01*
X014990Y019039D01*
X014996Y019092D01*
X014998Y019145D01*
X014989Y019145D01*
X014987Y019093D01*
X014981Y019040D01*
X014972Y018989D01*
X014960Y018938D01*
X014944Y018887D01*
X014925Y018838D01*
X014903Y018791D01*
X014877Y018745D01*
X014849Y018701D01*
X014818Y018659D01*
X014784Y018618D01*
X014747Y018581D01*
X014708Y018546D01*
X014702Y018552D01*
X014741Y018587D01*
X014777Y018625D01*
X014811Y018664D01*
X014842Y018706D01*
X014870Y018750D01*
X014895Y018795D01*
X014917Y018842D01*
X014936Y018890D01*
X014951Y018940D01*
X014964Y018990D01*
X014972Y019042D01*
X014978Y019093D01*
X014980Y019145D01*
X014971Y019145D01*
X014969Y019094D01*
X014964Y019043D01*
X014955Y018992D01*
X014943Y018942D01*
X014927Y018893D01*
X014909Y018846D01*
X014887Y018799D01*
X014862Y018754D01*
X014834Y018711D01*
X014804Y018670D01*
X014771Y018631D01*
X014735Y018594D01*
X014697Y018559D01*
X014691Y018566D01*
X014732Y018603D01*
X014770Y018643D01*
X014804Y018685D01*
X014836Y018730D01*
X014865Y018777D01*
X014890Y018826D01*
X014911Y018877D01*
X014929Y018928D01*
X014943Y018982D01*
X014953Y019036D01*
X014960Y019090D01*
X014962Y019145D01*
X017042Y019155D02*
X016952Y019155D01*
X016953Y019155D02*
X016951Y019209D01*
X016945Y019262D01*
X016935Y019315D01*
X016921Y019367D01*
X016904Y019418D01*
X016883Y019467D01*
X016859Y019515D01*
X016831Y019561D01*
X016800Y019605D01*
X016766Y019647D01*
X016730Y019686D01*
X016690Y019723D01*
X016648Y019756D01*
X016604Y019787D01*
X016558Y019814D01*
X016600Y019893D01*
X016649Y019865D01*
X016695Y019833D01*
X016740Y019798D01*
X016782Y019761D01*
X016822Y019720D01*
X016858Y019677D01*
X016892Y019632D01*
X016923Y019585D01*
X016950Y019535D01*
X016974Y019484D01*
X016995Y019432D01*
X017012Y019378D01*
X017025Y019323D01*
X017035Y019268D01*
X017041Y019211D01*
X017043Y019155D01*
X017034Y019155D01*
X017032Y019211D01*
X017026Y019266D01*
X017016Y019321D01*
X017003Y019376D01*
X016986Y019429D01*
X016966Y019481D01*
X016942Y019531D01*
X016915Y019580D01*
X016885Y019627D01*
X016851Y019672D01*
X016815Y019714D01*
X016776Y019754D01*
X016734Y019791D01*
X016690Y019826D01*
X016644Y019857D01*
X016596Y019885D01*
X016592Y019877D01*
X016639Y019849D01*
X016685Y019818D01*
X016728Y019784D01*
X016770Y019748D01*
X016808Y019708D01*
X016844Y019666D01*
X016877Y019622D01*
X016907Y019576D01*
X016934Y019527D01*
X016957Y019477D01*
X016978Y019426D01*
X016994Y019373D01*
X017007Y019320D01*
X017017Y019265D01*
X017023Y019210D01*
X017025Y019155D01*
X017016Y019155D01*
X017014Y019210D01*
X017008Y019264D01*
X016999Y019318D01*
X016986Y019371D01*
X016969Y019423D01*
X016949Y019474D01*
X016926Y019523D01*
X016899Y019571D01*
X016870Y019617D01*
X016837Y019661D01*
X016802Y019702D01*
X016763Y019741D01*
X016723Y019778D01*
X016680Y019811D01*
X016634Y019842D01*
X016587Y019869D01*
X016583Y019861D01*
X016630Y019834D01*
X016674Y019804D01*
X016717Y019771D01*
X016757Y019735D01*
X016795Y019696D01*
X016830Y019655D01*
X016862Y019612D01*
X016892Y019566D01*
X016918Y019519D01*
X016941Y019470D01*
X016961Y019420D01*
X016977Y019368D01*
X016990Y019316D01*
X016999Y019263D01*
X017005Y019209D01*
X017007Y019155D01*
X016998Y019155D01*
X016996Y019208D01*
X016990Y019261D01*
X016981Y019314D01*
X016968Y019366D01*
X016952Y019417D01*
X016933Y019467D01*
X016910Y019515D01*
X016884Y019562D01*
X016855Y019606D01*
X016823Y019649D01*
X016788Y019690D01*
X016751Y019728D01*
X016711Y019764D01*
X016669Y019797D01*
X016625Y019827D01*
X016579Y019854D01*
X016575Y019846D01*
X016620Y019819D01*
X016664Y019789D01*
X016705Y019757D01*
X016745Y019722D01*
X016782Y019684D01*
X016816Y019644D01*
X016848Y019601D01*
X016876Y019557D01*
X016902Y019511D01*
X016924Y019463D01*
X016944Y019414D01*
X016960Y019364D01*
X016972Y019312D01*
X016981Y019260D01*
X016987Y019208D01*
X016989Y019155D01*
X016980Y019155D01*
X016978Y019211D01*
X016971Y019266D01*
X016961Y019321D01*
X016947Y019375D01*
X016929Y019427D01*
X016908Y019479D01*
X016882Y019528D01*
X016854Y019576D01*
X016822Y019622D01*
X016787Y019665D01*
X016749Y019705D01*
X016708Y019743D01*
X016664Y019778D01*
X016618Y019809D01*
X016570Y019838D01*
X016566Y019830D01*
X016614Y019802D01*
X016659Y019771D01*
X016702Y019736D01*
X016742Y019699D01*
X016780Y019659D01*
X016815Y019616D01*
X016846Y019571D01*
X016875Y019524D01*
X016899Y019475D01*
X016921Y019424D01*
X016938Y019372D01*
X016952Y019319D01*
X016962Y019265D01*
X016969Y019210D01*
X016971Y019155D01*
X016962Y019155D01*
X016960Y019209D01*
X016954Y019263D01*
X016944Y019317D01*
X016930Y019369D01*
X016912Y019421D01*
X016891Y019471D01*
X016867Y019520D01*
X016839Y019566D01*
X016807Y019611D01*
X016773Y019653D01*
X016736Y019692D01*
X016696Y019729D01*
X016654Y019763D01*
X016609Y019794D01*
X016562Y019822D01*
X015775Y019881D02*
X015820Y019803D01*
X015819Y019803D02*
X015775Y019775D01*
X015733Y019744D01*
X015693Y019711D01*
X015655Y019675D01*
X015620Y019636D01*
X015588Y019595D01*
X015558Y019551D01*
X015532Y019506D01*
X015509Y019459D01*
X015489Y019411D01*
X015473Y019361D01*
X015460Y019311D01*
X015451Y019259D01*
X015445Y019207D01*
X015443Y019155D01*
X015354Y019154D01*
X015353Y019155D01*
X015355Y019210D01*
X015361Y019264D01*
X015370Y019319D01*
X015383Y019372D01*
X015399Y019424D01*
X015418Y019476D01*
X015441Y019526D01*
X015467Y019574D01*
X015496Y019621D01*
X015528Y019665D01*
X015563Y019708D01*
X015601Y019748D01*
X015641Y019785D01*
X015683Y019820D01*
X015728Y019852D01*
X015774Y019881D01*
X015779Y019873D01*
X015733Y019845D01*
X015689Y019813D01*
X015647Y019778D01*
X015607Y019741D01*
X015570Y019702D01*
X015535Y019660D01*
X015504Y019616D01*
X015475Y019570D01*
X015449Y019522D01*
X015427Y019472D01*
X015407Y019422D01*
X015391Y019370D01*
X015379Y019317D01*
X015370Y019263D01*
X015364Y019209D01*
X015362Y019155D01*
X015371Y019155D01*
X015373Y019209D01*
X015379Y019262D01*
X015388Y019315D01*
X015400Y019367D01*
X015416Y019419D01*
X015435Y019469D01*
X015457Y019518D01*
X015483Y019565D01*
X015511Y019611D01*
X015543Y019654D01*
X015577Y019696D01*
X015613Y019735D01*
X015653Y019772D01*
X015694Y019806D01*
X015738Y019837D01*
X015783Y019866D01*
X015788Y019858D01*
X015740Y019828D01*
X015694Y019794D01*
X015651Y019758D01*
X015610Y019718D01*
X015572Y019676D01*
X015537Y019632D01*
X015505Y019585D01*
X015477Y019536D01*
X015452Y019485D01*
X015430Y019432D01*
X015413Y019379D01*
X015399Y019324D01*
X015389Y019268D01*
X015382Y019212D01*
X015380Y019155D01*
X015389Y019155D01*
X015391Y019211D01*
X015397Y019267D01*
X015407Y019322D01*
X015421Y019376D01*
X015439Y019429D01*
X015460Y019481D01*
X015485Y019532D01*
X015513Y019580D01*
X015544Y019626D01*
X015579Y019671D01*
X015616Y019712D01*
X015657Y019751D01*
X015699Y019787D01*
X015745Y019820D01*
X015792Y019850D01*
X015797Y019842D01*
X015750Y019813D01*
X015705Y019780D01*
X015663Y019744D01*
X015623Y019706D01*
X015586Y019665D01*
X015551Y019621D01*
X015520Y019575D01*
X015493Y019527D01*
X015468Y019478D01*
X015447Y019426D01*
X015430Y019374D01*
X015416Y019320D01*
X015406Y019265D01*
X015400Y019210D01*
X015398Y019155D01*
X015407Y019155D01*
X015409Y019210D01*
X015415Y019264D01*
X015425Y019318D01*
X015439Y019371D01*
X015456Y019423D01*
X015476Y019474D01*
X015501Y019523D01*
X015528Y019570D01*
X015559Y019616D01*
X015592Y019659D01*
X015629Y019700D01*
X015669Y019738D01*
X015711Y019773D01*
X015755Y019805D01*
X015801Y019834D01*
X015806Y019826D01*
X015760Y019798D01*
X015716Y019766D01*
X015675Y019731D01*
X015636Y019693D01*
X015599Y019653D01*
X015566Y019611D01*
X015536Y019566D01*
X015508Y019519D01*
X015485Y019470D01*
X015464Y019420D01*
X015447Y019369D01*
X015434Y019316D01*
X015424Y019263D01*
X015418Y019209D01*
X015416Y019155D01*
X015425Y019155D01*
X015427Y019208D01*
X015433Y019262D01*
X015443Y019314D01*
X015456Y019366D01*
X015473Y019417D01*
X015493Y019467D01*
X015516Y019515D01*
X015543Y019561D01*
X015573Y019605D01*
X015606Y019647D01*
X015642Y019687D01*
X015681Y019724D01*
X015722Y019759D01*
X015765Y019790D01*
X015810Y019819D01*
X015815Y019811D01*
X015770Y019783D01*
X015727Y019752D01*
X015687Y019718D01*
X015649Y019681D01*
X015613Y019642D01*
X015581Y019600D01*
X015551Y019556D01*
X015524Y019510D01*
X015501Y019463D01*
X015481Y019414D01*
X015464Y019364D01*
X015451Y019312D01*
X015442Y019260D01*
X015436Y019208D01*
X015434Y019155D01*
X015354Y019146D02*
X015444Y019146D01*
X015443Y019145D02*
X015445Y019091D01*
X015451Y019038D01*
X015461Y018985D01*
X015475Y018933D01*
X015492Y018882D01*
X015513Y018832D01*
X015537Y018784D01*
X015565Y018738D01*
X015596Y018694D01*
X015630Y018653D01*
X015667Y018613D01*
X015706Y018577D01*
X015649Y018509D01*
X015648Y018508D01*
X015607Y018546D01*
X015569Y018586D01*
X015533Y018629D01*
X015500Y018674D01*
X015470Y018721D01*
X015444Y018769D01*
X015420Y018820D01*
X015400Y018872D01*
X015384Y018925D01*
X015370Y018979D01*
X015361Y019034D01*
X015355Y019089D01*
X015353Y019145D01*
X015362Y019145D01*
X015364Y019090D01*
X015370Y019035D01*
X015379Y018981D01*
X015392Y018927D01*
X015409Y018875D01*
X015428Y018823D01*
X015452Y018773D01*
X015478Y018725D01*
X015508Y018679D01*
X015540Y018634D01*
X015575Y018592D01*
X015614Y018552D01*
X015654Y018515D01*
X015660Y018522D01*
X015620Y018559D01*
X015582Y018598D01*
X015547Y018640D01*
X015515Y018684D01*
X015486Y018730D01*
X015460Y018778D01*
X015437Y018827D01*
X015417Y018878D01*
X015401Y018930D01*
X015388Y018983D01*
X015379Y019036D01*
X015373Y019091D01*
X015371Y019145D01*
X015380Y019145D01*
X015382Y019091D01*
X015388Y019038D01*
X015397Y018985D01*
X015410Y018932D01*
X015426Y018881D01*
X015445Y018830D01*
X015468Y018782D01*
X015493Y018734D01*
X015522Y018689D01*
X015554Y018645D01*
X015589Y018604D01*
X015626Y018565D01*
X015666Y018529D01*
X015672Y018536D01*
X015632Y018572D01*
X015595Y018610D01*
X015561Y018651D01*
X015530Y018694D01*
X015501Y018739D01*
X015476Y018786D01*
X015453Y018834D01*
X015434Y018884D01*
X015418Y018935D01*
X015406Y018986D01*
X015397Y019039D01*
X015391Y019092D01*
X015389Y019145D01*
X015398Y019145D01*
X015400Y019092D01*
X015406Y019040D01*
X015415Y018988D01*
X015427Y018937D01*
X015443Y018887D01*
X015462Y018837D01*
X015484Y018790D01*
X015509Y018743D01*
X015537Y018699D01*
X015568Y018657D01*
X015602Y018616D01*
X015639Y018578D01*
X015677Y018543D01*
X015683Y018549D01*
X015645Y018585D01*
X015609Y018622D01*
X015575Y018662D01*
X015545Y018704D01*
X015517Y018748D01*
X015492Y018794D01*
X015470Y018841D01*
X015451Y018890D01*
X015436Y018939D01*
X015423Y018990D01*
X015415Y019041D01*
X015409Y019093D01*
X015407Y019145D01*
X015416Y019145D01*
X015418Y019089D01*
X015425Y019034D01*
X015435Y018979D01*
X015449Y018925D01*
X015467Y018872D01*
X015489Y018821D01*
X015514Y018771D01*
X015543Y018723D01*
X015575Y018678D01*
X015610Y018635D01*
X015648Y018594D01*
X015689Y018556D01*
X015695Y018563D01*
X015654Y018600D01*
X015617Y018641D01*
X015582Y018683D01*
X015550Y018728D01*
X015522Y018776D01*
X015497Y018825D01*
X015475Y018876D01*
X015458Y018928D01*
X015444Y018981D01*
X015434Y019035D01*
X015427Y019090D01*
X015425Y019145D01*
X015434Y019145D01*
X015436Y019091D01*
X015442Y019037D01*
X015452Y018983D01*
X015466Y018930D01*
X015484Y018879D01*
X015505Y018829D01*
X015530Y018780D01*
X015558Y018733D01*
X015589Y018689D01*
X015623Y018647D01*
X015661Y018607D01*
X015701Y018570D01*
X016742Y018505D02*
X016685Y018574D01*
X016685Y018573D02*
X016725Y018610D01*
X016763Y018649D01*
X016797Y018691D01*
X016829Y018735D01*
X016857Y018781D01*
X016882Y018830D01*
X016903Y018880D01*
X016921Y018931D01*
X016934Y018984D01*
X016944Y019037D01*
X016951Y019091D01*
X016953Y019145D01*
X017042Y019146D01*
X017043Y019145D01*
X017041Y019089D01*
X017035Y019033D01*
X017025Y018978D01*
X017012Y018923D01*
X016995Y018870D01*
X016975Y018817D01*
X016951Y018766D01*
X016924Y018717D01*
X016893Y018670D01*
X016860Y018625D01*
X016824Y018582D01*
X016785Y018542D01*
X016743Y018504D01*
X016737Y018511D01*
X016778Y018548D01*
X016817Y018588D01*
X016853Y018630D01*
X016886Y018675D01*
X016916Y018722D01*
X016943Y018770D01*
X016966Y018821D01*
X016987Y018873D01*
X017003Y018926D01*
X017016Y018980D01*
X017026Y019034D01*
X017032Y019089D01*
X017034Y019145D01*
X017025Y019145D01*
X017023Y019090D01*
X017017Y019035D01*
X017008Y018981D01*
X016995Y018928D01*
X016978Y018876D01*
X016958Y018824D01*
X016935Y018775D01*
X016908Y018726D01*
X016879Y018680D01*
X016846Y018636D01*
X016810Y018594D01*
X016772Y018555D01*
X016731Y018518D01*
X016726Y018525D01*
X016766Y018561D01*
X016804Y018600D01*
X016839Y018642D01*
X016871Y018685D01*
X016901Y018731D01*
X016927Y018779D01*
X016950Y018828D01*
X016970Y018878D01*
X016986Y018930D01*
X016999Y018983D01*
X017008Y019037D01*
X017014Y019091D01*
X017016Y019145D01*
X017007Y019145D01*
X017005Y019091D01*
X016999Y019038D01*
X016990Y018985D01*
X016977Y018933D01*
X016961Y018881D01*
X016942Y018831D01*
X016919Y018783D01*
X016893Y018736D01*
X016864Y018690D01*
X016832Y018647D01*
X016797Y018606D01*
X016760Y018568D01*
X016720Y018532D01*
X016714Y018539D01*
X016753Y018574D01*
X016790Y018612D01*
X016825Y018653D01*
X016856Y018696D01*
X016885Y018740D01*
X016911Y018787D01*
X016933Y018835D01*
X016953Y018884D01*
X016969Y018935D01*
X016981Y018987D01*
X016990Y019039D01*
X016996Y019092D01*
X016998Y019145D01*
X016989Y019145D01*
X016987Y019093D01*
X016981Y019040D01*
X016972Y018989D01*
X016960Y018938D01*
X016944Y018887D01*
X016925Y018838D01*
X016903Y018791D01*
X016877Y018745D01*
X016849Y018701D01*
X016818Y018659D01*
X016784Y018618D01*
X016747Y018581D01*
X016708Y018546D01*
X016702Y018552D01*
X016741Y018587D01*
X016777Y018625D01*
X016811Y018664D01*
X016842Y018706D01*
X016870Y018750D01*
X016895Y018795D01*
X016917Y018842D01*
X016936Y018890D01*
X016951Y018940D01*
X016964Y018990D01*
X016972Y019042D01*
X016978Y019093D01*
X016980Y019145D01*
X016971Y019145D01*
X016969Y019094D01*
X016964Y019043D01*
X016955Y018992D01*
X016943Y018942D01*
X016927Y018893D01*
X016909Y018846D01*
X016887Y018799D01*
X016862Y018754D01*
X016834Y018711D01*
X016804Y018670D01*
X016771Y018631D01*
X016735Y018594D01*
X016697Y018559D01*
X016691Y018566D01*
X016732Y018603D01*
X016770Y018643D01*
X016804Y018685D01*
X016836Y018730D01*
X016865Y018777D01*
X016890Y018826D01*
X016911Y018877D01*
X016929Y018928D01*
X016943Y018982D01*
X016953Y019036D01*
X016960Y019090D01*
X016962Y019145D01*
X019042Y019155D02*
X018952Y019155D01*
X018953Y019155D02*
X018951Y019209D01*
X018945Y019262D01*
X018935Y019315D01*
X018921Y019367D01*
X018904Y019418D01*
X018883Y019467D01*
X018859Y019515D01*
X018831Y019561D01*
X018800Y019605D01*
X018766Y019647D01*
X018730Y019686D01*
X018690Y019723D01*
X018648Y019756D01*
X018604Y019787D01*
X018558Y019814D01*
X018600Y019893D01*
X018649Y019865D01*
X018695Y019833D01*
X018740Y019798D01*
X018782Y019761D01*
X018822Y019720D01*
X018858Y019677D01*
X018892Y019632D01*
X018923Y019585D01*
X018950Y019535D01*
X018974Y019484D01*
X018995Y019432D01*
X019012Y019378D01*
X019025Y019323D01*
X019035Y019268D01*
X019041Y019211D01*
X019043Y019155D01*
X019034Y019155D01*
X019032Y019211D01*
X019026Y019266D01*
X019016Y019321D01*
X019003Y019376D01*
X018986Y019429D01*
X018966Y019481D01*
X018942Y019531D01*
X018915Y019580D01*
X018885Y019627D01*
X018851Y019672D01*
X018815Y019714D01*
X018776Y019754D01*
X018734Y019791D01*
X018690Y019826D01*
X018644Y019857D01*
X018596Y019885D01*
X018592Y019877D01*
X018639Y019849D01*
X018685Y019818D01*
X018728Y019784D01*
X018770Y019748D01*
X018808Y019708D01*
X018844Y019666D01*
X018877Y019622D01*
X018907Y019576D01*
X018934Y019527D01*
X018957Y019477D01*
X018978Y019426D01*
X018994Y019373D01*
X019007Y019320D01*
X019017Y019265D01*
X019023Y019210D01*
X019025Y019155D01*
X019016Y019155D01*
X019014Y019210D01*
X019008Y019264D01*
X018999Y019318D01*
X018986Y019371D01*
X018969Y019423D01*
X018949Y019474D01*
X018926Y019523D01*
X018899Y019571D01*
X018870Y019617D01*
X018837Y019661D01*
X018802Y019702D01*
X018763Y019741D01*
X018723Y019778D01*
X018680Y019811D01*
X018634Y019842D01*
X018587Y019869D01*
X018583Y019861D01*
X018630Y019834D01*
X018674Y019804D01*
X018717Y019771D01*
X018757Y019735D01*
X018795Y019696D01*
X018830Y019655D01*
X018862Y019612D01*
X018892Y019566D01*
X018918Y019519D01*
X018941Y019470D01*
X018961Y019420D01*
X018977Y019368D01*
X018990Y019316D01*
X018999Y019263D01*
X019005Y019209D01*
X019007Y019155D01*
X018998Y019155D01*
X018996Y019208D01*
X018990Y019261D01*
X018981Y019314D01*
X018968Y019366D01*
X018952Y019417D01*
X018933Y019467D01*
X018910Y019515D01*
X018884Y019562D01*
X018855Y019606D01*
X018823Y019649D01*
X018788Y019690D01*
X018751Y019728D01*
X018711Y019764D01*
X018669Y019797D01*
X018625Y019827D01*
X018579Y019854D01*
X018575Y019846D01*
X018620Y019819D01*
X018664Y019789D01*
X018705Y019757D01*
X018745Y019722D01*
X018782Y019684D01*
X018816Y019644D01*
X018848Y019601D01*
X018876Y019557D01*
X018902Y019511D01*
X018924Y019463D01*
X018944Y019414D01*
X018960Y019364D01*
X018972Y019312D01*
X018981Y019260D01*
X018987Y019208D01*
X018989Y019155D01*
X018980Y019155D01*
X018978Y019211D01*
X018971Y019266D01*
X018961Y019321D01*
X018947Y019375D01*
X018929Y019427D01*
X018908Y019479D01*
X018882Y019528D01*
X018854Y019576D01*
X018822Y019622D01*
X018787Y019665D01*
X018749Y019705D01*
X018708Y019743D01*
X018664Y019778D01*
X018618Y019809D01*
X018570Y019838D01*
X018566Y019830D01*
X018614Y019802D01*
X018659Y019771D01*
X018702Y019736D01*
X018742Y019699D01*
X018780Y019659D01*
X018815Y019616D01*
X018846Y019571D01*
X018875Y019524D01*
X018899Y019475D01*
X018921Y019424D01*
X018938Y019372D01*
X018952Y019319D01*
X018962Y019265D01*
X018969Y019210D01*
X018971Y019155D01*
X018962Y019155D01*
X018960Y019209D01*
X018954Y019263D01*
X018944Y019317D01*
X018930Y019369D01*
X018912Y019421D01*
X018891Y019471D01*
X018867Y019520D01*
X018839Y019566D01*
X018807Y019611D01*
X018773Y019653D01*
X018736Y019692D01*
X018696Y019729D01*
X018654Y019763D01*
X018609Y019794D01*
X018562Y019822D01*
X017775Y019881D02*
X017820Y019803D01*
X017819Y019803D02*
X017775Y019775D01*
X017733Y019744D01*
X017693Y019711D01*
X017655Y019675D01*
X017620Y019636D01*
X017588Y019595D01*
X017558Y019551D01*
X017532Y019506D01*
X017509Y019459D01*
X017489Y019411D01*
X017473Y019361D01*
X017460Y019311D01*
X017451Y019259D01*
X017445Y019207D01*
X017443Y019155D01*
X017354Y019154D01*
X017353Y019155D01*
X017355Y019210D01*
X017361Y019264D01*
X017370Y019319D01*
X017383Y019372D01*
X017399Y019424D01*
X017418Y019476D01*
X017441Y019526D01*
X017467Y019574D01*
X017496Y019621D01*
X017528Y019665D01*
X017563Y019708D01*
X017601Y019748D01*
X017641Y019785D01*
X017683Y019820D01*
X017728Y019852D01*
X017774Y019881D01*
X017779Y019873D01*
X017733Y019845D01*
X017689Y019813D01*
X017647Y019778D01*
X017607Y019741D01*
X017570Y019702D01*
X017535Y019660D01*
X017504Y019616D01*
X017475Y019570D01*
X017449Y019522D01*
X017427Y019472D01*
X017407Y019422D01*
X017391Y019370D01*
X017379Y019317D01*
X017370Y019263D01*
X017364Y019209D01*
X017362Y019155D01*
X017371Y019155D01*
X017373Y019209D01*
X017379Y019262D01*
X017388Y019315D01*
X017400Y019367D01*
X017416Y019419D01*
X017435Y019469D01*
X017457Y019518D01*
X017483Y019565D01*
X017511Y019611D01*
X017543Y019654D01*
X017577Y019696D01*
X017613Y019735D01*
X017653Y019772D01*
X017694Y019806D01*
X017738Y019837D01*
X017783Y019866D01*
X017788Y019858D01*
X017740Y019828D01*
X017694Y019794D01*
X017651Y019758D01*
X017610Y019718D01*
X017572Y019676D01*
X017537Y019632D01*
X017505Y019585D01*
X017477Y019536D01*
X017452Y019485D01*
X017430Y019432D01*
X017413Y019379D01*
X017399Y019324D01*
X017389Y019268D01*
X017382Y019212D01*
X017380Y019155D01*
X017389Y019155D01*
X017391Y019211D01*
X017397Y019267D01*
X017407Y019322D01*
X017421Y019376D01*
X017439Y019429D01*
X017460Y019481D01*
X017485Y019532D01*
X017513Y019580D01*
X017544Y019626D01*
X017579Y019671D01*
X017616Y019712D01*
X017657Y019751D01*
X017699Y019787D01*
X017745Y019820D01*
X017792Y019850D01*
X017797Y019842D01*
X017750Y019813D01*
X017705Y019780D01*
X017663Y019744D01*
X017623Y019706D01*
X017586Y019665D01*
X017551Y019621D01*
X017520Y019575D01*
X017493Y019527D01*
X017468Y019478D01*
X017447Y019426D01*
X017430Y019374D01*
X017416Y019320D01*
X017406Y019265D01*
X017400Y019210D01*
X017398Y019155D01*
X017407Y019155D01*
X017409Y019210D01*
X017415Y019264D01*
X017425Y019318D01*
X017439Y019371D01*
X017456Y019423D01*
X017476Y019474D01*
X017501Y019523D01*
X017528Y019570D01*
X017559Y019616D01*
X017592Y019659D01*
X017629Y019700D01*
X017669Y019738D01*
X017711Y019773D01*
X017755Y019805D01*
X017801Y019834D01*
X017806Y019826D01*
X017760Y019798D01*
X017716Y019766D01*
X017675Y019731D01*
X017636Y019693D01*
X017599Y019653D01*
X017566Y019611D01*
X017536Y019566D01*
X017508Y019519D01*
X017485Y019470D01*
X017464Y019420D01*
X017447Y019369D01*
X017434Y019316D01*
X017424Y019263D01*
X017418Y019209D01*
X017416Y019155D01*
X017425Y019155D01*
X017427Y019208D01*
X017433Y019262D01*
X017443Y019314D01*
X017456Y019366D01*
X017473Y019417D01*
X017493Y019467D01*
X017516Y019515D01*
X017543Y019561D01*
X017573Y019605D01*
X017606Y019647D01*
X017642Y019687D01*
X017681Y019724D01*
X017722Y019759D01*
X017765Y019790D01*
X017810Y019819D01*
X017815Y019811D01*
X017770Y019783D01*
X017727Y019752D01*
X017687Y019718D01*
X017649Y019681D01*
X017613Y019642D01*
X017581Y019600D01*
X017551Y019556D01*
X017524Y019510D01*
X017501Y019463D01*
X017481Y019414D01*
X017464Y019364D01*
X017451Y019312D01*
X017442Y019260D01*
X017436Y019208D01*
X017434Y019155D01*
X017354Y019146D02*
X017444Y019146D01*
X017443Y019145D02*
X017445Y019091D01*
X017451Y019038D01*
X017461Y018985D01*
X017475Y018933D01*
X017492Y018882D01*
X017513Y018832D01*
X017537Y018784D01*
X017565Y018738D01*
X017596Y018694D01*
X017630Y018653D01*
X017667Y018613D01*
X017706Y018577D01*
X017649Y018509D01*
X017648Y018508D01*
X017607Y018546D01*
X017569Y018586D01*
X017533Y018629D01*
X017500Y018674D01*
X017470Y018721D01*
X017444Y018769D01*
X017420Y018820D01*
X017400Y018872D01*
X017384Y018925D01*
X017370Y018979D01*
X017361Y019034D01*
X017355Y019089D01*
X017353Y019145D01*
X017362Y019145D01*
X017364Y019090D01*
X017370Y019035D01*
X017379Y018981D01*
X017392Y018927D01*
X017409Y018875D01*
X017428Y018823D01*
X017452Y018773D01*
X017478Y018725D01*
X017508Y018679D01*
X017540Y018634D01*
X017575Y018592D01*
X017614Y018552D01*
X017654Y018515D01*
X017660Y018522D01*
X017620Y018559D01*
X017582Y018598D01*
X017547Y018640D01*
X017515Y018684D01*
X017486Y018730D01*
X017460Y018778D01*
X017437Y018827D01*
X017417Y018878D01*
X017401Y018930D01*
X017388Y018983D01*
X017379Y019036D01*
X017373Y019091D01*
X017371Y019145D01*
X017380Y019145D01*
X017382Y019091D01*
X017388Y019038D01*
X017397Y018985D01*
X017410Y018932D01*
X017426Y018881D01*
X017445Y018830D01*
X017468Y018782D01*
X017493Y018734D01*
X017522Y018689D01*
X017554Y018645D01*
X017589Y018604D01*
X017626Y018565D01*
X017666Y018529D01*
X017672Y018536D01*
X017632Y018572D01*
X017595Y018610D01*
X017561Y018651D01*
X017530Y018694D01*
X017501Y018739D01*
X017476Y018786D01*
X017453Y018834D01*
X017434Y018884D01*
X017418Y018935D01*
X017406Y018986D01*
X017397Y019039D01*
X017391Y019092D01*
X017389Y019145D01*
X017398Y019145D01*
X017400Y019092D01*
X017406Y019040D01*
X017415Y018988D01*
X017427Y018937D01*
X017443Y018887D01*
X017462Y018837D01*
X017484Y018790D01*
X017509Y018743D01*
X017537Y018699D01*
X017568Y018657D01*
X017602Y018616D01*
X017639Y018578D01*
X017677Y018543D01*
X017683Y018549D01*
X017645Y018585D01*
X017609Y018622D01*
X017575Y018662D01*
X017545Y018704D01*
X017517Y018748D01*
X017492Y018794D01*
X017470Y018841D01*
X017451Y018890D01*
X017436Y018939D01*
X017423Y018990D01*
X017415Y019041D01*
X017409Y019093D01*
X017407Y019145D01*
X017416Y019145D01*
X017418Y019089D01*
X017425Y019034D01*
X017435Y018979D01*
X017449Y018925D01*
X017467Y018872D01*
X017489Y018821D01*
X017514Y018771D01*
X017543Y018723D01*
X017575Y018678D01*
X017610Y018635D01*
X017648Y018594D01*
X017689Y018556D01*
X017695Y018563D01*
X017654Y018600D01*
X017617Y018641D01*
X017582Y018683D01*
X017550Y018728D01*
X017522Y018776D01*
X017497Y018825D01*
X017475Y018876D01*
X017458Y018928D01*
X017444Y018981D01*
X017434Y019035D01*
X017427Y019090D01*
X017425Y019145D01*
X017434Y019145D01*
X017436Y019091D01*
X017442Y019037D01*
X017452Y018983D01*
X017466Y018930D01*
X017484Y018879D01*
X017505Y018829D01*
X017530Y018780D01*
X017558Y018733D01*
X017589Y018689D01*
X017623Y018647D01*
X017661Y018607D01*
X017701Y018570D01*
X018742Y018505D02*
X018685Y018574D01*
X018685Y018573D02*
X018725Y018610D01*
X018763Y018649D01*
X018797Y018691D01*
X018829Y018735D01*
X018857Y018781D01*
X018882Y018830D01*
X018903Y018880D01*
X018921Y018931D01*
X018934Y018984D01*
X018944Y019037D01*
X018951Y019091D01*
X018953Y019145D01*
X019042Y019146D01*
X019043Y019145D01*
X019041Y019089D01*
X019035Y019033D01*
X019025Y018978D01*
X019012Y018923D01*
X018995Y018870D01*
X018975Y018817D01*
X018951Y018766D01*
X018924Y018717D01*
X018893Y018670D01*
X018860Y018625D01*
X018824Y018582D01*
X018785Y018542D01*
X018743Y018504D01*
X018737Y018511D01*
X018778Y018548D01*
X018817Y018588D01*
X018853Y018630D01*
X018886Y018675D01*
X018916Y018722D01*
X018943Y018770D01*
X018966Y018821D01*
X018987Y018873D01*
X019003Y018926D01*
X019016Y018980D01*
X019026Y019034D01*
X019032Y019089D01*
X019034Y019145D01*
X019025Y019145D01*
X019023Y019090D01*
X019017Y019035D01*
X019008Y018981D01*
X018995Y018928D01*
X018978Y018876D01*
X018958Y018824D01*
X018935Y018775D01*
X018908Y018726D01*
X018879Y018680D01*
X018846Y018636D01*
X018810Y018594D01*
X018772Y018555D01*
X018731Y018518D01*
X018726Y018525D01*
X018766Y018561D01*
X018804Y018600D01*
X018839Y018642D01*
X018871Y018685D01*
X018901Y018731D01*
X018927Y018779D01*
X018950Y018828D01*
X018970Y018878D01*
X018986Y018930D01*
X018999Y018983D01*
X019008Y019037D01*
X019014Y019091D01*
X019016Y019145D01*
X019007Y019145D01*
X019005Y019091D01*
X018999Y019038D01*
X018990Y018985D01*
X018977Y018933D01*
X018961Y018881D01*
X018942Y018831D01*
X018919Y018783D01*
X018893Y018736D01*
X018864Y018690D01*
X018832Y018647D01*
X018797Y018606D01*
X018760Y018568D01*
X018720Y018532D01*
X018714Y018539D01*
X018753Y018574D01*
X018790Y018612D01*
X018825Y018653D01*
X018856Y018696D01*
X018885Y018740D01*
X018911Y018787D01*
X018933Y018835D01*
X018953Y018884D01*
X018969Y018935D01*
X018981Y018987D01*
X018990Y019039D01*
X018996Y019092D01*
X018998Y019145D01*
X018989Y019145D01*
X018987Y019093D01*
X018981Y019040D01*
X018972Y018989D01*
X018960Y018938D01*
X018944Y018887D01*
X018925Y018838D01*
X018903Y018791D01*
X018877Y018745D01*
X018849Y018701D01*
X018818Y018659D01*
X018784Y018618D01*
X018747Y018581D01*
X018708Y018546D01*
X018702Y018552D01*
X018741Y018587D01*
X018777Y018625D01*
X018811Y018664D01*
X018842Y018706D01*
X018870Y018750D01*
X018895Y018795D01*
X018917Y018842D01*
X018936Y018890D01*
X018951Y018940D01*
X018964Y018990D01*
X018972Y019042D01*
X018978Y019093D01*
X018980Y019145D01*
X018971Y019145D01*
X018969Y019094D01*
X018964Y019043D01*
X018955Y018992D01*
X018943Y018942D01*
X018927Y018893D01*
X018909Y018846D01*
X018887Y018799D01*
X018862Y018754D01*
X018834Y018711D01*
X018804Y018670D01*
X018771Y018631D01*
X018735Y018594D01*
X018697Y018559D01*
X018691Y018566D01*
X018732Y018603D01*
X018770Y018643D01*
X018804Y018685D01*
X018836Y018730D01*
X018865Y018777D01*
X018890Y018826D01*
X018911Y018877D01*
X018929Y018928D01*
X018943Y018982D01*
X018953Y019036D01*
X018960Y019090D01*
X018962Y019145D01*
M02*
