G75*
G70*
%OFA0B0*%
%FSLAX24Y24*%
%IPPOS*%
%LPD*%
%AMOC8*
5,1,8,0,0,1.08239X$1,22.5*
%
%ADD10C,0.0000*%
%ADD11R,0.0217X0.1130*%
%ADD12C,0.0820*%
%ADD13R,0.0790X0.0789*%
%ADD14R,0.0789X0.0790*%
%ADD15OC8,0.0720*%
%ADD16OC8,0.0680*%
%ADD17C,0.1346*%
%ADD18C,0.0513*%
%ADD19R,0.0789X0.0631*%
D10*
X005948Y001650D02*
X005948Y020150D01*
X005950Y020194D01*
X005956Y020237D01*
X005965Y020279D01*
X005978Y020321D01*
X005995Y020361D01*
X006015Y020400D01*
X006038Y020437D01*
X006065Y020471D01*
X006094Y020504D01*
X006127Y020533D01*
X006161Y020560D01*
X006198Y020583D01*
X006237Y020603D01*
X006277Y020620D01*
X006319Y020633D01*
X006361Y020642D01*
X006404Y020648D01*
X006448Y020650D01*
X024948Y020650D01*
X024992Y020648D01*
X025035Y020642D01*
X025077Y020633D01*
X025119Y020620D01*
X025159Y020603D01*
X025198Y020583D01*
X025235Y020560D01*
X025269Y020533D01*
X025302Y020504D01*
X025331Y020471D01*
X025358Y020437D01*
X025381Y020400D01*
X025401Y020361D01*
X025418Y020321D01*
X025431Y020279D01*
X025440Y020237D01*
X025446Y020194D01*
X025448Y020150D01*
X025448Y001650D01*
X025446Y001606D01*
X025440Y001563D01*
X025431Y001521D01*
X025418Y001479D01*
X025401Y001439D01*
X025381Y001400D01*
X025358Y001363D01*
X025331Y001329D01*
X025302Y001296D01*
X025269Y001267D01*
X025235Y001240D01*
X025198Y001217D01*
X025159Y001197D01*
X025119Y001180D01*
X025077Y001167D01*
X025035Y001158D01*
X024992Y001152D01*
X024948Y001150D01*
X006448Y001150D01*
X006404Y001152D01*
X006361Y001158D01*
X006319Y001167D01*
X006277Y001180D01*
X006237Y001197D01*
X006198Y001217D01*
X006161Y001240D01*
X006127Y001267D01*
X006094Y001296D01*
X006065Y001329D01*
X006038Y001363D01*
X006015Y001400D01*
X005995Y001439D01*
X005978Y001479D01*
X005965Y001521D01*
X005956Y001563D01*
X005950Y001606D01*
X005948Y001650D01*
X006892Y004014D02*
X006894Y004043D01*
X006900Y004071D01*
X006909Y004099D01*
X006922Y004125D01*
X006939Y004148D01*
X006958Y004170D01*
X006980Y004189D01*
X007005Y004204D01*
X007031Y004217D01*
X007059Y004225D01*
X007087Y004230D01*
X007116Y004231D01*
X007145Y004228D01*
X007173Y004221D01*
X007200Y004211D01*
X007226Y004197D01*
X007249Y004180D01*
X007270Y004160D01*
X007288Y004137D01*
X007303Y004112D01*
X007314Y004085D01*
X007322Y004057D01*
X007326Y004028D01*
X007326Y004000D01*
X007322Y003971D01*
X007314Y003943D01*
X007303Y003916D01*
X007288Y003891D01*
X007270Y003868D01*
X007249Y003848D01*
X007226Y003831D01*
X007200Y003817D01*
X007173Y003807D01*
X007145Y003800D01*
X007116Y003797D01*
X007087Y003798D01*
X007059Y003803D01*
X007031Y003811D01*
X007005Y003824D01*
X006980Y003839D01*
X006958Y003858D01*
X006939Y003880D01*
X006922Y003903D01*
X006909Y003929D01*
X006900Y003957D01*
X006894Y003985D01*
X006892Y004014D01*
X006892Y005786D02*
X006894Y005815D01*
X006900Y005843D01*
X006909Y005871D01*
X006922Y005897D01*
X006939Y005920D01*
X006958Y005942D01*
X006980Y005961D01*
X007005Y005976D01*
X007031Y005989D01*
X007059Y005997D01*
X007087Y006002D01*
X007116Y006003D01*
X007145Y006000D01*
X007173Y005993D01*
X007200Y005983D01*
X007226Y005969D01*
X007249Y005952D01*
X007270Y005932D01*
X007288Y005909D01*
X007303Y005884D01*
X007314Y005857D01*
X007322Y005829D01*
X007326Y005800D01*
X007326Y005772D01*
X007322Y005743D01*
X007314Y005715D01*
X007303Y005688D01*
X007288Y005663D01*
X007270Y005640D01*
X007249Y005620D01*
X007226Y005603D01*
X007200Y005589D01*
X007173Y005579D01*
X007145Y005572D01*
X007116Y005569D01*
X007087Y005570D01*
X007059Y005575D01*
X007031Y005583D01*
X007005Y005596D01*
X006980Y005611D01*
X006958Y005630D01*
X006939Y005652D01*
X006922Y005675D01*
X006909Y005701D01*
X006900Y005729D01*
X006894Y005757D01*
X006892Y005786D01*
D11*
X015284Y006961D03*
X015540Y006961D03*
X015796Y006961D03*
X016052Y006961D03*
X016308Y006961D03*
X016564Y006961D03*
X016820Y006961D03*
X017076Y006961D03*
X017332Y006961D03*
X017588Y006961D03*
X017844Y006961D03*
X018099Y006961D03*
X018355Y006961D03*
X018611Y006961D03*
X018611Y010339D03*
X018355Y010339D03*
X018099Y010339D03*
X017844Y010339D03*
X017588Y010339D03*
X017332Y010339D03*
X017076Y010339D03*
X016820Y010339D03*
X016564Y010339D03*
X016308Y010339D03*
X016052Y010339D03*
X015796Y010339D03*
X015540Y010339D03*
X015284Y010339D03*
D12*
X015448Y013150D03*
X016448Y013150D03*
X017448Y013150D03*
X018448Y013150D03*
X019448Y013150D03*
X020448Y013150D03*
X021448Y013150D03*
X022448Y013150D03*
X018198Y018650D03*
X018198Y019650D03*
X016198Y019650D03*
X016198Y018650D03*
X014198Y018650D03*
X014198Y019650D03*
X014448Y013150D03*
X013448Y013150D03*
X012448Y013150D03*
X011448Y013150D03*
X010448Y013150D03*
X008448Y013150D03*
X007698Y012650D03*
X008448Y012150D03*
X008093Y006278D03*
X008093Y005344D03*
X008093Y004456D03*
X008093Y003522D03*
X014448Y005150D03*
X015448Y005150D03*
X016448Y005150D03*
X017448Y005150D03*
X018448Y005150D03*
X019448Y005150D03*
X019228Y003540D03*
X019228Y001760D03*
X016668Y001760D03*
X016668Y003540D03*
X024448Y003150D03*
X024448Y002150D03*
X024448Y004150D03*
X024448Y005150D03*
X024448Y006150D03*
X024448Y007150D03*
D13*
X019948Y008060D03*
X019948Y009240D03*
X013948Y009240D03*
X013948Y008060D03*
X014948Y003740D03*
X014948Y002560D03*
X012948Y002560D03*
X012948Y003740D03*
X020448Y014560D03*
X020448Y015740D03*
X022448Y015740D03*
X022448Y014560D03*
X024198Y014560D03*
X024198Y015740D03*
X018198Y015560D03*
X018198Y016740D03*
X016198Y016740D03*
X016198Y015560D03*
X014198Y015560D03*
X014198Y016740D03*
D14*
X008538Y017150D03*
X007358Y017150D03*
X007358Y015150D03*
X008538Y015150D03*
X008538Y010150D03*
X007358Y010150D03*
X009858Y002150D03*
X011038Y002150D03*
X020858Y002650D03*
X022038Y002650D03*
X022038Y004650D03*
X020858Y004650D03*
D15*
X012448Y016150D03*
X011448Y016150D03*
X011448Y017150D03*
X012448Y017150D03*
X010448Y017150D03*
X010448Y016150D03*
D16*
X021448Y018150D03*
X022448Y018150D03*
X023448Y018150D03*
X023448Y019150D03*
X022448Y019150D03*
X021448Y019150D03*
D17*
X007148Y007183D03*
X007148Y002617D03*
D18*
X007109Y004014D03*
X007109Y005786D03*
D19*
X009966Y003650D03*
X010930Y003650D03*
M02*
