G75*
G70*
%OFA0B0*%
%FSLAX24Y24*%
%IPPOS*%
%LPD*%
%AMOC8*
5,1,8,0,0,1.08239X$1,22.5*
%
%ADD10C,0.0000*%
%ADD11C,0.0740*%
%ADD12OC8,0.0640*%
%ADD13OC8,0.0600*%
%ADD14C,0.1266*%
%ADD15C,0.0100*%
%ADD16C,0.0400*%
%ADD17C,0.0120*%
D10*
X005948Y001650D02*
X005948Y020150D01*
X005950Y020194D01*
X005956Y020237D01*
X005965Y020279D01*
X005978Y020321D01*
X005995Y020361D01*
X006015Y020400D01*
X006038Y020437D01*
X006065Y020471D01*
X006094Y020504D01*
X006127Y020533D01*
X006161Y020560D01*
X006198Y020583D01*
X006237Y020603D01*
X006277Y020620D01*
X006319Y020633D01*
X006361Y020642D01*
X006404Y020648D01*
X006448Y020650D01*
X024948Y020650D01*
X024992Y020648D01*
X025035Y020642D01*
X025077Y020633D01*
X025119Y020620D01*
X025159Y020603D01*
X025198Y020583D01*
X025235Y020560D01*
X025269Y020533D01*
X025302Y020504D01*
X025331Y020471D01*
X025358Y020437D01*
X025381Y020400D01*
X025401Y020361D01*
X025418Y020321D01*
X025431Y020279D01*
X025440Y020237D01*
X025446Y020194D01*
X025448Y020150D01*
X025448Y001650D01*
X025446Y001606D01*
X025440Y001563D01*
X025431Y001521D01*
X025418Y001479D01*
X025401Y001439D01*
X025381Y001400D01*
X025358Y001363D01*
X025331Y001329D01*
X025302Y001296D01*
X025269Y001267D01*
X025235Y001240D01*
X025198Y001217D01*
X025159Y001197D01*
X025119Y001180D01*
X025077Y001167D01*
X025035Y001158D01*
X024992Y001152D01*
X024948Y001150D01*
X006448Y001150D01*
X006404Y001152D01*
X006361Y001158D01*
X006319Y001167D01*
X006277Y001180D01*
X006237Y001197D01*
X006198Y001217D01*
X006161Y001240D01*
X006127Y001267D01*
X006094Y001296D01*
X006065Y001329D01*
X006038Y001363D01*
X006015Y001400D01*
X005995Y001439D01*
X005978Y001479D01*
X005965Y001521D01*
X005956Y001563D01*
X005950Y001606D01*
X005948Y001650D01*
X006892Y004014D02*
X006894Y004043D01*
X006900Y004071D01*
X006909Y004099D01*
X006922Y004125D01*
X006939Y004148D01*
X006958Y004170D01*
X006980Y004189D01*
X007005Y004204D01*
X007031Y004217D01*
X007059Y004225D01*
X007087Y004230D01*
X007116Y004231D01*
X007145Y004228D01*
X007173Y004221D01*
X007200Y004211D01*
X007226Y004197D01*
X007249Y004180D01*
X007270Y004160D01*
X007288Y004137D01*
X007303Y004112D01*
X007314Y004085D01*
X007322Y004057D01*
X007326Y004028D01*
X007326Y004000D01*
X007322Y003971D01*
X007314Y003943D01*
X007303Y003916D01*
X007288Y003891D01*
X007270Y003868D01*
X007249Y003848D01*
X007226Y003831D01*
X007200Y003817D01*
X007173Y003807D01*
X007145Y003800D01*
X007116Y003797D01*
X007087Y003798D01*
X007059Y003803D01*
X007031Y003811D01*
X007005Y003824D01*
X006980Y003839D01*
X006958Y003858D01*
X006939Y003880D01*
X006922Y003903D01*
X006909Y003929D01*
X006900Y003957D01*
X006894Y003985D01*
X006892Y004014D01*
X006892Y005786D02*
X006894Y005815D01*
X006900Y005843D01*
X006909Y005871D01*
X006922Y005897D01*
X006939Y005920D01*
X006958Y005942D01*
X006980Y005961D01*
X007005Y005976D01*
X007031Y005989D01*
X007059Y005997D01*
X007087Y006002D01*
X007116Y006003D01*
X007145Y006000D01*
X007173Y005993D01*
X007200Y005983D01*
X007226Y005969D01*
X007249Y005952D01*
X007270Y005932D01*
X007288Y005909D01*
X007303Y005884D01*
X007314Y005857D01*
X007322Y005829D01*
X007326Y005800D01*
X007326Y005772D01*
X007322Y005743D01*
X007314Y005715D01*
X007303Y005688D01*
X007288Y005663D01*
X007270Y005640D01*
X007249Y005620D01*
X007226Y005603D01*
X007200Y005589D01*
X007173Y005579D01*
X007145Y005572D01*
X007116Y005569D01*
X007087Y005570D01*
X007059Y005575D01*
X007031Y005583D01*
X007005Y005596D01*
X006980Y005611D01*
X006958Y005630D01*
X006939Y005652D01*
X006922Y005675D01*
X006909Y005701D01*
X006900Y005729D01*
X006894Y005757D01*
X006892Y005786D01*
D11*
X008093Y005344D03*
X008093Y004456D03*
X008093Y003522D03*
X008093Y006278D03*
X014448Y005150D03*
X015448Y005150D03*
X016448Y005150D03*
X017448Y005150D03*
X018448Y005150D03*
X019448Y005150D03*
X019228Y003540D03*
X019228Y001760D03*
X016668Y001760D03*
X016668Y003540D03*
X024448Y003150D03*
X024448Y002150D03*
X024448Y004150D03*
X024448Y005150D03*
X024448Y006150D03*
X024448Y007150D03*
X022448Y013150D03*
X021448Y013150D03*
X020448Y013150D03*
X019448Y013150D03*
X018448Y013150D03*
X017448Y013150D03*
X016448Y013150D03*
X015448Y013150D03*
X014448Y013150D03*
X013448Y013150D03*
X012448Y013150D03*
X011448Y013150D03*
X010448Y013150D03*
X008448Y013150D03*
X007698Y012650D03*
X008448Y012150D03*
X014198Y018650D03*
X014198Y019650D03*
X016198Y019650D03*
X016198Y018650D03*
X018198Y018650D03*
X018198Y019650D03*
D12*
X012448Y017150D03*
X011448Y017150D03*
X011448Y016150D03*
X012448Y016150D03*
X010448Y016150D03*
X010448Y017150D03*
D13*
X021448Y018150D03*
X022448Y018150D03*
X023448Y018150D03*
X023448Y019150D03*
X022448Y019150D03*
X021448Y019150D03*
D14*
X007148Y007183D03*
X007148Y002617D03*
D15*
X006307Y002234D02*
X006238Y002234D01*
X006238Y002332D02*
X006267Y002332D01*
X006238Y002401D02*
X006365Y002094D01*
X006625Y001834D01*
X006964Y001693D01*
X007331Y001693D01*
X007671Y001834D01*
X007930Y002094D01*
X008071Y002433D01*
X008071Y002800D01*
X008045Y002862D01*
X008224Y002862D01*
X008467Y002963D01*
X008652Y003148D01*
X008753Y003391D01*
X008753Y003653D01*
X008652Y003896D01*
X008559Y003989D01*
X008652Y004082D01*
X008753Y004325D01*
X008753Y004588D01*
X008652Y004830D01*
X008582Y004900D01*
X008652Y004970D01*
X008753Y005212D01*
X008753Y005475D01*
X008652Y005718D01*
X008467Y005903D01*
X008457Y005907D01*
X008489Y005939D01*
X008537Y006005D01*
X008575Y006078D01*
X008600Y006156D01*
X008613Y006237D01*
X008613Y006238D01*
X008133Y006238D01*
X008133Y006318D01*
X008613Y006318D01*
X008613Y006319D01*
X008600Y006400D01*
X008575Y006478D01*
X008537Y006550D01*
X008489Y006617D01*
X008432Y006675D01*
X008365Y006723D01*
X008292Y006760D01*
X008215Y006785D01*
X008134Y006798D01*
X008133Y006798D01*
X008133Y006318D01*
X008053Y006318D01*
X008053Y006798D01*
X008052Y006798D01*
X007983Y006787D01*
X008071Y007000D01*
X008071Y007367D01*
X007930Y007706D01*
X007671Y007966D01*
X007331Y008107D01*
X006964Y008107D01*
X006625Y007966D01*
X006365Y007706D01*
X006238Y007399D01*
X006238Y020150D01*
X006242Y020191D01*
X006273Y020267D01*
X006331Y020325D01*
X006407Y020356D01*
X006448Y020360D01*
X018427Y020360D01*
X018410Y020343D01*
X018363Y020296D01*
X018329Y020310D01*
X018067Y020310D01*
X017824Y020210D01*
X017638Y020024D01*
X017538Y019781D01*
X017538Y019519D01*
X017638Y019276D01*
X017764Y019150D01*
X017638Y019024D01*
X017538Y018781D01*
X017538Y018519D01*
X017638Y018276D01*
X017824Y018090D01*
X018067Y017990D01*
X018307Y017990D01*
X016307Y015990D01*
X013880Y015990D01*
X013755Y015938D01*
X013660Y015843D01*
X013307Y015490D01*
X012339Y015490D01*
X012289Y015540D01*
X012701Y015540D01*
X013058Y015897D01*
X013058Y016403D01*
X012811Y016650D01*
X013058Y016897D01*
X013058Y017403D01*
X012701Y017760D01*
X012195Y017760D01*
X011948Y017513D01*
X011701Y017760D01*
X011195Y017760D01*
X010948Y017513D01*
X010701Y017760D01*
X010195Y017760D01*
X009838Y017403D01*
X009838Y016897D01*
X010085Y016650D01*
X009935Y016500D01*
X009878Y016500D01*
X009750Y016447D01*
X009651Y016348D01*
X007500Y014197D01*
X007401Y014098D01*
X007348Y013970D01*
X007348Y013219D01*
X007324Y013210D01*
X007138Y013024D01*
X007038Y012781D01*
X007038Y012519D01*
X007138Y012276D01*
X007324Y012090D01*
X007348Y012081D01*
X007348Y011080D01*
X007401Y010952D01*
X011750Y006603D01*
X011878Y006550D01*
X016218Y006550D01*
X016218Y006415D01*
X015603Y005800D01*
X015579Y005810D01*
X015317Y005810D01*
X015074Y005710D01*
X014948Y005583D01*
X014822Y005710D01*
X014579Y005810D01*
X014317Y005810D01*
X014074Y005710D01*
X013888Y005524D01*
X013788Y005281D01*
X013788Y005019D01*
X013888Y004776D01*
X014074Y004590D01*
X014317Y004490D01*
X014579Y004490D01*
X014822Y004590D01*
X014948Y004717D01*
X015074Y004590D01*
X015317Y004490D01*
X015579Y004490D01*
X015822Y004590D01*
X015948Y004717D01*
X016074Y004590D01*
X016317Y004490D01*
X016579Y004490D01*
X016822Y004590D01*
X016948Y004717D01*
X017074Y004590D01*
X017317Y004490D01*
X017579Y004490D01*
X017822Y004590D01*
X018007Y004776D01*
X018033Y004837D01*
X018051Y004811D01*
X018109Y004753D01*
X018175Y004705D01*
X018248Y004668D01*
X018326Y004643D01*
X018398Y004631D01*
X018398Y005100D01*
X018498Y005100D01*
X018498Y004631D01*
X018570Y004643D01*
X018647Y004668D01*
X018720Y004705D01*
X018787Y004753D01*
X018845Y004811D01*
X018863Y004837D01*
X018888Y004776D01*
X019074Y004590D01*
X019317Y004490D01*
X019579Y004490D01*
X019822Y004590D01*
X020007Y004776D01*
X020108Y005019D01*
X020108Y005281D01*
X020007Y005524D01*
X019822Y005710D01*
X019579Y005810D01*
X019317Y005810D01*
X019074Y005710D01*
X018888Y005524D01*
X018863Y005463D01*
X018845Y005489D01*
X018787Y005547D01*
X018720Y005595D01*
X018647Y005632D01*
X018570Y005657D01*
X018498Y005669D01*
X018498Y005200D01*
X018398Y005200D01*
X018398Y005669D01*
X018326Y005657D01*
X018248Y005632D01*
X018175Y005595D01*
X018109Y005547D01*
X018051Y005489D01*
X018033Y005463D01*
X018007Y005524D01*
X017905Y005626D01*
X018089Y005810D01*
X021516Y005810D01*
X021640Y005862D01*
X021736Y005957D01*
X024708Y008929D01*
X024708Y007757D01*
X024579Y007810D01*
X024317Y007810D01*
X024074Y007710D01*
X023888Y007524D01*
X023788Y007281D01*
X023788Y007019D01*
X023888Y006776D01*
X024014Y006650D01*
X023888Y006524D01*
X023788Y006281D01*
X023788Y006019D01*
X023888Y005776D01*
X024014Y005650D01*
X023888Y005524D01*
X023874Y005490D01*
X023089Y005490D01*
X022938Y005641D01*
X022938Y005747D01*
X022863Y005928D01*
X022725Y006065D01*
X022545Y006140D01*
X022350Y006140D01*
X022170Y006065D01*
X022032Y005928D01*
X021958Y005747D01*
X021958Y005553D01*
X022032Y005372D01*
X022170Y005235D01*
X022350Y005160D01*
X022457Y005160D01*
X022660Y004957D01*
X022755Y004862D01*
X022880Y004810D01*
X023874Y004810D01*
X023888Y004776D01*
X024014Y004650D01*
X023888Y004524D01*
X023788Y004281D01*
X023788Y004019D01*
X023888Y003776D01*
X024014Y003650D01*
X023888Y003524D01*
X023788Y003281D01*
X023788Y003019D01*
X023888Y002776D01*
X024074Y002590D01*
X024135Y002565D01*
X024109Y002547D01*
X024051Y002489D01*
X024003Y002423D01*
X023966Y002350D01*
X023941Y002272D01*
X023929Y002200D01*
X024398Y002200D01*
X024398Y002100D01*
X024498Y002100D01*
X024498Y002200D01*
X024966Y002200D01*
X024955Y002272D01*
X024930Y002350D01*
X024893Y002423D01*
X024845Y002489D01*
X024787Y002547D01*
X024761Y002565D01*
X024822Y002590D01*
X025007Y002776D01*
X025021Y002810D01*
X025116Y002810D01*
X025158Y002828D01*
X025158Y001650D01*
X025154Y001609D01*
X025122Y001533D01*
X025065Y001475D01*
X024989Y001444D01*
X024948Y001440D01*
X019638Y001440D01*
X019673Y001487D01*
X019710Y001560D01*
X019735Y001638D01*
X019746Y001710D01*
X019278Y001710D01*
X019278Y001810D01*
X019746Y001810D01*
X019735Y001882D01*
X019710Y001960D01*
X019673Y002033D01*
X019625Y002099D01*
X019567Y002157D01*
X019500Y002205D01*
X019427Y002242D01*
X019350Y002267D01*
X019278Y002279D01*
X019278Y001810D01*
X019178Y001810D01*
X019178Y002279D01*
X019106Y002267D01*
X019028Y002242D01*
X018955Y002205D01*
X018889Y002157D01*
X018831Y002099D01*
X018783Y002033D01*
X018746Y001960D01*
X018721Y001882D01*
X018709Y001810D01*
X019178Y001810D01*
X019178Y001710D01*
X018709Y001710D01*
X018721Y001638D01*
X018746Y001560D01*
X018783Y001487D01*
X018818Y001440D01*
X017078Y001440D01*
X017113Y001487D01*
X017150Y001560D01*
X017175Y001638D01*
X017186Y001710D01*
X016718Y001710D01*
X016718Y001810D01*
X017186Y001810D01*
X017175Y001882D01*
X017150Y001960D01*
X017113Y002033D01*
X017065Y002099D01*
X017007Y002157D01*
X016940Y002205D01*
X016867Y002242D01*
X016790Y002267D01*
X016718Y002279D01*
X016718Y001810D01*
X016618Y001810D01*
X016618Y002279D01*
X016546Y002267D01*
X016468Y002242D01*
X016395Y002205D01*
X016329Y002157D01*
X016271Y002099D01*
X016223Y002033D01*
X016186Y001960D01*
X016161Y001882D01*
X016149Y001810D01*
X016618Y001810D01*
X016618Y001710D01*
X016149Y001710D01*
X016161Y001638D01*
X016186Y001560D01*
X016223Y001487D01*
X016258Y001440D01*
X006448Y001440D01*
X006407Y001444D01*
X006331Y001475D01*
X006273Y001533D01*
X006242Y001609D01*
X006238Y001650D01*
X006238Y002401D01*
X006238Y002135D02*
X006348Y002135D01*
X006422Y002037D02*
X006238Y002037D01*
X006238Y001938D02*
X006521Y001938D01*
X006619Y001840D02*
X006238Y001840D01*
X006238Y001741D02*
X006849Y001741D01*
X006403Y001446D02*
X016254Y001446D01*
X016194Y001544D02*
X006269Y001544D01*
X006239Y001643D02*
X016160Y001643D01*
X016154Y001840D02*
X007676Y001840D01*
X007775Y001938D02*
X016179Y001938D01*
X016226Y002037D02*
X007873Y002037D01*
X007948Y002135D02*
X016307Y002135D01*
X016452Y002234D02*
X007988Y002234D01*
X008029Y002332D02*
X023960Y002332D01*
X023935Y002234D02*
X019444Y002234D01*
X019278Y002234D02*
X019178Y002234D01*
X019228Y002150D02*
X019228Y001760D01*
X019278Y001741D02*
X024126Y001741D01*
X024109Y001753D02*
X024175Y001705D01*
X024248Y001668D01*
X024326Y001643D01*
X024398Y001631D01*
X024398Y002100D01*
X023929Y002100D01*
X023941Y002028D01*
X023966Y001950D01*
X024003Y001877D01*
X024051Y001811D01*
X024109Y001753D01*
X024031Y001840D02*
X019742Y001840D01*
X019717Y001938D02*
X023972Y001938D01*
X023939Y002037D02*
X019670Y002037D01*
X019588Y002135D02*
X024398Y002135D01*
X024448Y002150D02*
X019228Y002150D01*
X016668Y002150D01*
X016668Y001760D01*
X016718Y001741D02*
X019178Y001741D01*
X019178Y001840D02*
X019278Y001840D01*
X019278Y001938D02*
X019178Y001938D01*
X019178Y002037D02*
X019278Y002037D01*
X019278Y002135D02*
X019178Y002135D01*
X019012Y002234D02*
X016884Y002234D01*
X016718Y002234D02*
X016618Y002234D01*
X016618Y002135D02*
X016718Y002135D01*
X016718Y002037D02*
X016618Y002037D01*
X016618Y001938D02*
X016718Y001938D01*
X016718Y001840D02*
X016618Y001840D01*
X016618Y001741D02*
X007446Y001741D01*
X008070Y002431D02*
X024009Y002431D01*
X024091Y002529D02*
X008071Y002529D01*
X008071Y002628D02*
X024037Y002628D01*
X023938Y002726D02*
X008071Y002726D01*
X008061Y002825D02*
X023868Y002825D01*
X023828Y002923D02*
X019463Y002923D01*
X019359Y002880D02*
X019602Y002980D01*
X019787Y003166D01*
X019888Y003409D01*
X019888Y003671D01*
X019787Y003914D01*
X019602Y004100D01*
X019359Y004200D01*
X019097Y004200D01*
X018854Y004100D01*
X018668Y003914D01*
X018654Y003880D01*
X017241Y003880D01*
X017227Y003914D01*
X017042Y004100D01*
X016799Y004200D01*
X016537Y004200D01*
X016294Y004100D01*
X016108Y003914D01*
X016008Y003671D01*
X016008Y003409D01*
X016108Y003166D01*
X016294Y002980D01*
X016537Y002880D01*
X016799Y002880D01*
X017042Y002980D01*
X017227Y003166D01*
X017241Y003200D01*
X018654Y003200D01*
X018668Y003166D01*
X018854Y002980D01*
X019097Y002880D01*
X019359Y002880D01*
X019643Y003022D02*
X023788Y003022D01*
X023788Y003120D02*
X019741Y003120D01*
X019809Y003219D02*
X023788Y003219D01*
X023803Y003317D02*
X019850Y003317D01*
X019888Y003416D02*
X023843Y003416D01*
X023884Y003514D02*
X019888Y003514D01*
X019888Y003613D02*
X023977Y003613D01*
X023953Y003711D02*
X019871Y003711D01*
X019831Y003810D02*
X023875Y003810D01*
X023834Y003908D02*
X019790Y003908D01*
X019695Y004007D02*
X023793Y004007D01*
X023788Y004105D02*
X019588Y004105D01*
X019601Y004499D02*
X023878Y004499D01*
X023837Y004401D02*
X008753Y004401D01*
X008753Y004499D02*
X014295Y004499D01*
X014067Y004598D02*
X008749Y004598D01*
X008708Y004696D02*
X013968Y004696D01*
X013881Y004795D02*
X008667Y004795D01*
X008589Y004893D02*
X013840Y004893D01*
X013799Y004992D02*
X008661Y004992D01*
X008702Y005090D02*
X013788Y005090D01*
X013788Y005189D02*
X008743Y005189D01*
X008753Y005287D02*
X013790Y005287D01*
X013831Y005386D02*
X008753Y005386D01*
X008749Y005484D02*
X013872Y005484D01*
X013947Y005583D02*
X008708Y005583D01*
X008667Y005681D02*
X014046Y005681D01*
X014243Y005780D02*
X008590Y005780D01*
X008492Y005878D02*
X015681Y005878D01*
X015779Y005977D02*
X008517Y005977D01*
X008573Y006075D02*
X015878Y006075D01*
X015976Y006174D02*
X008603Y006174D01*
X008605Y006371D02*
X016173Y006371D01*
X016218Y006469D02*
X008577Y006469D01*
X008525Y006568D02*
X011836Y006568D01*
X011687Y006666D02*
X008440Y006666D01*
X008278Y006765D02*
X011588Y006765D01*
X011490Y006863D02*
X008014Y006863D01*
X008053Y006765D02*
X008133Y006765D01*
X008133Y006666D02*
X008053Y006666D01*
X008053Y006568D02*
X008133Y006568D01*
X008133Y006469D02*
X008053Y006469D01*
X008053Y006371D02*
X008133Y006371D01*
X008053Y006318D02*
X008053Y006238D01*
X007573Y006238D01*
X007573Y006237D01*
X007586Y006156D01*
X007611Y006078D01*
X007648Y006005D01*
X007696Y005939D01*
X007728Y005907D01*
X007719Y005903D01*
X007615Y005799D01*
X007615Y005887D01*
X007538Y006073D01*
X007395Y006215D01*
X007286Y006260D01*
X007331Y006260D01*
X007580Y006363D01*
X007573Y006319D01*
X007573Y006318D01*
X008053Y006318D01*
X008053Y006272D02*
X007360Y006272D01*
X007437Y006174D02*
X007583Y006174D01*
X007613Y006075D02*
X007536Y006075D01*
X007578Y005977D02*
X007669Y005977D01*
X007694Y005878D02*
X007615Y005878D01*
X008133Y006272D02*
X016075Y006272D01*
X016596Y005803D02*
X016865Y006072D01*
X016918Y006200D01*
X016918Y006970D01*
X016865Y007098D01*
X016766Y007197D01*
X016637Y007250D01*
X012093Y007250D01*
X008048Y011295D01*
X008048Y011816D01*
X008051Y011811D01*
X008109Y011753D01*
X008175Y011705D01*
X008248Y011668D01*
X008326Y011643D01*
X008407Y011630D01*
X008418Y011630D01*
X008418Y012120D01*
X008478Y012120D01*
X008478Y012180D01*
X008968Y012180D01*
X008968Y012191D01*
X008955Y012272D01*
X008930Y012350D01*
X008893Y012423D01*
X008845Y012489D01*
X008787Y012547D01*
X008761Y012565D01*
X008822Y012590D01*
X009007Y012776D01*
X009108Y013019D01*
X009108Y013281D01*
X009094Y013315D01*
X009389Y013610D01*
X009974Y013610D01*
X009888Y013524D01*
X009788Y013281D01*
X009788Y013019D01*
X009888Y012776D01*
X010074Y012590D01*
X010317Y012490D01*
X010579Y012490D01*
X010822Y012590D01*
X010948Y012717D01*
X011074Y012590D01*
X011317Y012490D01*
X011579Y012490D01*
X011822Y012590D01*
X011948Y012717D01*
X012074Y012590D01*
X012317Y012490D01*
X012579Y012490D01*
X012822Y012590D01*
X012948Y012717D01*
X013074Y012590D01*
X013317Y012490D01*
X013579Y012490D01*
X013822Y012590D01*
X013948Y012717D01*
X014074Y012590D01*
X014317Y012490D01*
X014579Y012490D01*
X014822Y012590D01*
X014948Y012717D01*
X015074Y012590D01*
X015317Y012490D01*
X015579Y012490D01*
X015613Y012504D01*
X016255Y011862D01*
X016380Y011810D01*
X018307Y011810D01*
X021108Y009009D01*
X021108Y008003D01*
X021032Y007928D01*
X020958Y007747D01*
X020958Y007553D01*
X021032Y007372D01*
X021170Y007235D01*
X021350Y007160D01*
X021477Y007160D01*
X021307Y006990D01*
X017880Y006990D01*
X017755Y006938D01*
X016613Y005796D01*
X016596Y005803D01*
X016671Y005878D02*
X016695Y005878D01*
X016769Y005977D02*
X016794Y005977D01*
X016866Y006075D02*
X016892Y006075D01*
X016907Y006174D02*
X016991Y006174D01*
X016918Y006272D02*
X017089Y006272D01*
X017188Y006371D02*
X016918Y006371D01*
X016918Y006469D02*
X017286Y006469D01*
X017385Y006568D02*
X016918Y006568D01*
X016918Y006666D02*
X017483Y006666D01*
X017582Y006765D02*
X016918Y006765D01*
X016918Y006863D02*
X017680Y006863D01*
X017811Y006962D02*
X016918Y006962D01*
X016880Y007060D02*
X021377Y007060D01*
X021476Y007159D02*
X016804Y007159D01*
X017948Y006650D02*
X016448Y005150D01*
X016927Y004696D02*
X016968Y004696D01*
X017067Y004598D02*
X016829Y004598D01*
X016601Y004499D02*
X017295Y004499D01*
X017601Y004499D02*
X019295Y004499D01*
X019067Y004598D02*
X017829Y004598D01*
X017927Y004696D02*
X018193Y004696D01*
X018068Y004795D02*
X018015Y004795D01*
X018398Y004795D02*
X018498Y004795D01*
X018498Y004893D02*
X018398Y004893D01*
X018398Y004992D02*
X018498Y004992D01*
X018498Y005090D02*
X018398Y005090D01*
X018398Y005287D02*
X018498Y005287D01*
X018498Y005386D02*
X018398Y005386D01*
X018398Y005484D02*
X018498Y005484D01*
X018498Y005583D02*
X018398Y005583D01*
X018158Y005583D02*
X017949Y005583D01*
X017960Y005681D02*
X019046Y005681D01*
X018947Y005583D02*
X018737Y005583D01*
X018848Y005484D02*
X018872Y005484D01*
X019243Y005780D02*
X018058Y005780D01*
X018048Y005484D02*
X018024Y005484D01*
X017448Y005650D02*
X017448Y005150D01*
X017448Y005650D02*
X017948Y006150D01*
X021448Y006150D01*
X024698Y009400D01*
X024698Y014400D01*
X023948Y015150D01*
X022448Y015150D01*
X021948Y015650D01*
X017448Y015650D01*
X016948Y015150D01*
X015448Y015150D01*
X014698Y014400D01*
X014198Y014400D01*
X013448Y015150D02*
X013948Y015650D01*
X016448Y015650D01*
X019948Y019150D01*
X021448Y019150D01*
X021863Y019570D02*
X022033Y019570D01*
X021948Y019484D02*
X021692Y019740D01*
X021203Y019740D01*
X020953Y019490D01*
X019880Y019490D01*
X019755Y019438D01*
X019660Y019343D01*
X019660Y019343D01*
X018858Y018541D01*
X018858Y018781D01*
X018757Y019024D01*
X018631Y019150D01*
X018757Y019276D01*
X018858Y019519D01*
X018858Y019781D01*
X018846Y019810D01*
X023807Y019810D01*
X024108Y019509D01*
X024108Y017291D01*
X023807Y016990D01*
X023301Y016990D01*
X023225Y017065D01*
X023045Y017140D01*
X022850Y017140D01*
X022670Y017065D01*
X022532Y016928D01*
X022458Y016747D01*
X022458Y016553D01*
X022532Y016372D01*
X022670Y016235D01*
X022850Y016160D01*
X023045Y016160D01*
X023225Y016235D01*
X023301Y016310D01*
X024016Y016310D01*
X024140Y016362D01*
X024236Y016457D01*
X024640Y016862D01*
X024736Y016957D01*
X024788Y017082D01*
X024788Y019718D01*
X024736Y019843D01*
X024640Y019938D01*
X024236Y020343D01*
X024219Y020360D01*
X024948Y020360D01*
X024989Y020356D01*
X025065Y020325D01*
X025122Y020267D01*
X025154Y020191D01*
X025158Y020150D01*
X025158Y015021D01*
X024336Y015843D01*
X024240Y015938D01*
X024116Y015990D01*
X022839Y015990D01*
X021788Y017041D01*
X021788Y017656D01*
X021948Y017816D01*
X022203Y017560D01*
X022692Y017560D01*
X022948Y017816D01*
X023203Y017560D01*
X023692Y017560D01*
X024038Y017906D01*
X024038Y018394D01*
X023692Y018740D01*
X023674Y018740D01*
X023898Y018964D01*
X023898Y019110D01*
X023488Y019110D01*
X023488Y019190D01*
X023898Y019190D01*
X023898Y019336D01*
X023634Y019600D01*
X023488Y019600D01*
X023488Y019190D01*
X023408Y019190D01*
X023408Y019600D01*
X023261Y019600D01*
X023038Y019376D01*
X023038Y019394D01*
X022692Y019740D01*
X022203Y019740D01*
X021948Y019484D01*
X021764Y019668D02*
X022132Y019668D01*
X022764Y019668D02*
X023949Y019668D01*
X024047Y019570D02*
X023665Y019570D01*
X023763Y019471D02*
X024108Y019471D01*
X024108Y019373D02*
X023862Y019373D01*
X023898Y019274D02*
X024108Y019274D01*
X024108Y019176D02*
X023488Y019176D01*
X023488Y019274D02*
X023408Y019274D01*
X023408Y019373D02*
X023488Y019373D01*
X023488Y019471D02*
X023408Y019471D01*
X023408Y019570D02*
X023488Y019570D01*
X023231Y019570D02*
X022863Y019570D01*
X022961Y019471D02*
X023133Y019471D01*
X023850Y019767D02*
X018858Y019767D01*
X018858Y019668D02*
X021132Y019668D01*
X021033Y019570D02*
X018858Y019570D01*
X018838Y019471D02*
X019834Y019471D01*
X019690Y019373D02*
X018797Y019373D01*
X018755Y019274D02*
X019591Y019274D01*
X019493Y019176D02*
X018657Y019176D01*
X018704Y019077D02*
X019394Y019077D01*
X019296Y018979D02*
X018776Y018979D01*
X018817Y018880D02*
X019197Y018880D01*
X019099Y018782D02*
X018858Y018782D01*
X018858Y018683D02*
X019000Y018683D01*
X018902Y018585D02*
X018858Y018585D01*
X018212Y017895D02*
X006238Y017895D01*
X006238Y017797D02*
X018114Y017797D01*
X018015Y017698D02*
X012763Y017698D01*
X012861Y017600D02*
X017917Y017600D01*
X017818Y017501D02*
X012960Y017501D01*
X013058Y017403D02*
X017720Y017403D01*
X017621Y017304D02*
X013058Y017304D01*
X013058Y017206D02*
X017523Y017206D01*
X017424Y017107D02*
X013058Y017107D01*
X013058Y017009D02*
X017326Y017009D01*
X017227Y016910D02*
X013058Y016910D01*
X012972Y016812D02*
X017129Y016812D01*
X017030Y016713D02*
X012874Y016713D01*
X012846Y016615D02*
X016932Y016615D01*
X016833Y016516D02*
X012945Y016516D01*
X013043Y016418D02*
X016735Y016418D01*
X016636Y016319D02*
X013058Y016319D01*
X013058Y016221D02*
X016538Y016221D01*
X016439Y016122D02*
X013058Y016122D01*
X013058Y016024D02*
X016341Y016024D01*
X017948Y015150D02*
X017198Y014400D01*
X016198Y014400D01*
X015448Y013150D02*
X016448Y012150D01*
X018448Y012150D01*
X021448Y009150D01*
X021448Y007650D01*
X021051Y007947D02*
X011396Y007947D01*
X011298Y008045D02*
X021108Y008045D01*
X021108Y008144D02*
X011199Y008144D01*
X011101Y008242D02*
X021108Y008242D01*
X021108Y008341D02*
X011002Y008341D01*
X010904Y008439D02*
X021108Y008439D01*
X021108Y008538D02*
X010805Y008538D01*
X010707Y008636D02*
X021108Y008636D01*
X021108Y008735D02*
X010608Y008735D01*
X010510Y008833D02*
X021108Y008833D01*
X021108Y008932D02*
X010411Y008932D01*
X010313Y009030D02*
X021087Y009030D01*
X020989Y009129D02*
X010214Y009129D01*
X010116Y009227D02*
X020890Y009227D01*
X020792Y009326D02*
X010017Y009326D01*
X009919Y009424D02*
X020693Y009424D01*
X020595Y009523D02*
X009820Y009523D01*
X009722Y009621D02*
X020496Y009621D01*
X020398Y009720D02*
X009623Y009720D01*
X009525Y009818D02*
X020299Y009818D01*
X020201Y009917D02*
X009426Y009917D01*
X009328Y010015D02*
X020102Y010015D01*
X020004Y010114D02*
X009229Y010114D01*
X009131Y010212D02*
X019905Y010212D01*
X019807Y010311D02*
X009032Y010311D01*
X008934Y010409D02*
X019708Y010409D01*
X019610Y010508D02*
X008835Y010508D01*
X008737Y010606D02*
X019511Y010606D01*
X019413Y010705D02*
X008638Y010705D01*
X008540Y010803D02*
X019314Y010803D01*
X019216Y010902D02*
X008441Y010902D01*
X008343Y011000D02*
X019117Y011000D01*
X019019Y011099D02*
X008244Y011099D01*
X008146Y011197D02*
X018920Y011197D01*
X018822Y011296D02*
X008048Y011296D01*
X008048Y011394D02*
X018723Y011394D01*
X018625Y011493D02*
X008048Y011493D01*
X008048Y011591D02*
X018526Y011591D01*
X018428Y011690D02*
X008690Y011690D01*
X008720Y011705D02*
X008787Y011753D01*
X008845Y011811D01*
X008893Y011877D01*
X008930Y011950D01*
X008955Y012028D01*
X008968Y012109D01*
X008968Y012120D01*
X008478Y012120D01*
X008478Y011630D01*
X008489Y011630D01*
X008570Y011643D01*
X008647Y011668D01*
X008720Y011705D01*
X008821Y011788D02*
X018329Y011788D01*
X019448Y012650D02*
X021448Y010650D01*
X023698Y010650D01*
X023698Y011650D02*
X022448Y011650D01*
X021448Y012650D01*
X021448Y013150D01*
X021448Y013650D01*
X020698Y014400D01*
X018198Y014400D01*
X017948Y015150D02*
X021448Y015150D01*
X021948Y014650D01*
X023698Y014650D01*
X024198Y014150D01*
X024198Y009400D01*
X021448Y006650D01*
X017948Y006650D01*
X019653Y005780D02*
X021971Y005780D01*
X021958Y005681D02*
X019850Y005681D01*
X019949Y005583D02*
X021958Y005583D01*
X021986Y005484D02*
X020024Y005484D01*
X020065Y005386D02*
X022027Y005386D01*
X022118Y005287D02*
X020106Y005287D01*
X020108Y005189D02*
X022282Y005189D01*
X022527Y005090D02*
X020108Y005090D01*
X020097Y004992D02*
X022626Y004992D01*
X022724Y004893D02*
X020056Y004893D01*
X020015Y004795D02*
X023881Y004795D01*
X023968Y004696D02*
X019927Y004696D01*
X019829Y004598D02*
X023962Y004598D01*
X023796Y004302D02*
X008743Y004302D01*
X008702Y004204D02*
X023788Y004204D01*
X024448Y005150D02*
X022948Y005150D01*
X022448Y005650D01*
X022814Y005977D02*
X023805Y005977D01*
X023788Y006075D02*
X022702Y006075D01*
X022884Y005878D02*
X023846Y005878D01*
X023887Y005780D02*
X022925Y005780D01*
X022938Y005681D02*
X023983Y005681D01*
X023947Y005583D02*
X022996Y005583D01*
X022194Y006075D02*
X021854Y006075D01*
X021952Y006174D02*
X023788Y006174D01*
X023788Y006272D02*
X022051Y006272D01*
X022149Y006371D02*
X023825Y006371D01*
X023866Y006469D02*
X022248Y006469D01*
X022346Y006568D02*
X023932Y006568D01*
X023998Y006666D02*
X022445Y006666D01*
X022543Y006765D02*
X023900Y006765D01*
X023852Y006863D02*
X022642Y006863D01*
X022740Y006962D02*
X023812Y006962D01*
X023788Y007060D02*
X022839Y007060D01*
X022937Y007159D02*
X023788Y007159D01*
X023788Y007257D02*
X023036Y007257D01*
X023134Y007356D02*
X023819Y007356D01*
X023859Y007454D02*
X023233Y007454D01*
X023331Y007553D02*
X023917Y007553D01*
X024016Y007651D02*
X023430Y007651D01*
X023528Y007750D02*
X024171Y007750D01*
X023824Y008045D02*
X024708Y008045D01*
X024708Y007947D02*
X023725Y007947D01*
X023627Y007848D02*
X024708Y007848D01*
X024708Y008144D02*
X023922Y008144D01*
X024021Y008242D02*
X024708Y008242D01*
X024708Y008341D02*
X024119Y008341D01*
X024218Y008439D02*
X024708Y008439D01*
X024708Y008538D02*
X024316Y008538D01*
X024415Y008636D02*
X024708Y008636D01*
X024708Y008735D02*
X024513Y008735D01*
X024612Y008833D02*
X024708Y008833D01*
X022081Y005977D02*
X021755Y005977D01*
X021657Y005878D02*
X022012Y005878D01*
X021148Y007257D02*
X012086Y007257D01*
X011987Y007356D02*
X021049Y007356D01*
X020999Y007454D02*
X011889Y007454D01*
X011790Y007553D02*
X020958Y007553D01*
X020958Y007651D02*
X011692Y007651D01*
X011593Y007750D02*
X020959Y007750D01*
X021000Y007848D02*
X011495Y007848D01*
X010997Y007356D02*
X008071Y007356D01*
X008071Y007257D02*
X011096Y007257D01*
X011194Y007159D02*
X008071Y007159D01*
X008071Y007060D02*
X011293Y007060D01*
X011391Y006962D02*
X008055Y006962D01*
X008035Y007454D02*
X010899Y007454D01*
X010800Y007553D02*
X007994Y007553D01*
X007953Y007651D02*
X010702Y007651D01*
X010603Y007750D02*
X007887Y007750D01*
X007789Y007848D02*
X010505Y007848D01*
X010406Y007947D02*
X007690Y007947D01*
X007480Y008045D02*
X010308Y008045D01*
X010209Y008144D02*
X006238Y008144D01*
X006238Y008242D02*
X010111Y008242D01*
X010012Y008341D02*
X006238Y008341D01*
X006238Y008439D02*
X009914Y008439D01*
X009815Y008538D02*
X006238Y008538D01*
X006238Y008636D02*
X009717Y008636D01*
X009618Y008735D02*
X006238Y008735D01*
X006238Y008833D02*
X009520Y008833D01*
X009421Y008932D02*
X006238Y008932D01*
X006238Y009030D02*
X009323Y009030D01*
X009224Y009129D02*
X006238Y009129D01*
X006238Y009227D02*
X009126Y009227D01*
X009027Y009326D02*
X006238Y009326D01*
X006238Y009424D02*
X008929Y009424D01*
X008830Y009523D02*
X006238Y009523D01*
X006238Y009621D02*
X008732Y009621D01*
X008633Y009720D02*
X006238Y009720D01*
X006238Y009818D02*
X008535Y009818D01*
X008436Y009917D02*
X006238Y009917D01*
X006238Y010015D02*
X008338Y010015D01*
X008239Y010114D02*
X006238Y010114D01*
X006238Y010212D02*
X008141Y010212D01*
X008042Y010311D02*
X006238Y010311D01*
X006238Y010409D02*
X007944Y010409D01*
X007845Y010508D02*
X006238Y010508D01*
X006238Y010606D02*
X007747Y010606D01*
X007648Y010705D02*
X006238Y010705D01*
X006238Y010803D02*
X007550Y010803D01*
X007451Y010902D02*
X006238Y010902D01*
X006238Y011000D02*
X007381Y011000D01*
X007348Y011099D02*
X006238Y011099D01*
X006238Y011197D02*
X007348Y011197D01*
X007348Y011296D02*
X006238Y011296D01*
X006238Y011394D02*
X007348Y011394D01*
X007348Y011493D02*
X006238Y011493D01*
X006238Y011591D02*
X007348Y011591D01*
X007348Y011690D02*
X006238Y011690D01*
X006238Y011788D02*
X007348Y011788D01*
X007348Y011887D02*
X006238Y011887D01*
X006238Y011985D02*
X007348Y011985D01*
X007341Y012084D02*
X006238Y012084D01*
X006238Y012182D02*
X007232Y012182D01*
X007137Y012281D02*
X006238Y012281D01*
X006238Y012379D02*
X007096Y012379D01*
X007055Y012478D02*
X006238Y012478D01*
X006238Y012576D02*
X007038Y012576D01*
X007038Y012675D02*
X006238Y012675D01*
X006238Y012773D02*
X007038Y012773D01*
X007075Y012872D02*
X006238Y012872D01*
X006238Y012970D02*
X007116Y012970D01*
X007183Y013069D02*
X006238Y013069D01*
X006238Y013167D02*
X007282Y013167D01*
X007348Y013266D02*
X006238Y013266D01*
X006238Y013364D02*
X007348Y013364D01*
X007348Y013463D02*
X006238Y013463D01*
X006238Y013561D02*
X007348Y013561D01*
X007348Y013660D02*
X006238Y013660D01*
X006238Y013758D02*
X007348Y013758D01*
X007348Y013857D02*
X006238Y013857D01*
X006238Y013955D02*
X007348Y013955D01*
X007383Y014054D02*
X006238Y014054D01*
X006238Y014152D02*
X007455Y014152D01*
X007553Y014251D02*
X006238Y014251D01*
X006238Y014349D02*
X007652Y014349D01*
X007750Y014448D02*
X006238Y014448D01*
X006238Y014546D02*
X007849Y014546D01*
X007947Y014645D02*
X006238Y014645D01*
X006238Y014743D02*
X008046Y014743D01*
X008144Y014842D02*
X006238Y014842D01*
X006238Y014940D02*
X008243Y014940D01*
X008341Y015039D02*
X006238Y015039D01*
X006238Y015137D02*
X008440Y015137D01*
X008538Y015236D02*
X006238Y015236D01*
X006238Y015334D02*
X008637Y015334D01*
X008735Y015433D02*
X006238Y015433D01*
X006238Y015531D02*
X008834Y015531D01*
X008932Y015630D02*
X006238Y015630D01*
X006238Y015728D02*
X009031Y015728D01*
X009129Y015827D02*
X006238Y015827D01*
X006238Y015925D02*
X009228Y015925D01*
X009326Y016024D02*
X006238Y016024D01*
X006238Y016122D02*
X009425Y016122D01*
X009523Y016221D02*
X006238Y016221D01*
X006238Y016319D02*
X009622Y016319D01*
X009720Y016418D02*
X006238Y016418D01*
X006238Y016516D02*
X009951Y016516D01*
X010050Y016615D02*
X006238Y016615D01*
X006238Y016713D02*
X010022Y016713D01*
X009924Y016812D02*
X006238Y016812D01*
X006238Y016910D02*
X009838Y016910D01*
X009838Y017009D02*
X006238Y017009D01*
X006238Y017107D02*
X009838Y017107D01*
X009838Y017206D02*
X006238Y017206D01*
X006238Y017304D02*
X009838Y017304D01*
X009838Y017403D02*
X006238Y017403D01*
X006238Y017501D02*
X009936Y017501D01*
X010035Y017600D02*
X006238Y017600D01*
X006238Y017698D02*
X010133Y017698D01*
X010763Y017698D02*
X011133Y017698D01*
X011035Y017600D02*
X010861Y017600D01*
X011763Y017698D02*
X012133Y017698D01*
X012035Y017600D02*
X011861Y017600D01*
X011448Y016150D02*
X011448Y015900D01*
X012198Y015150D01*
X013448Y015150D01*
X013348Y015531D02*
X012298Y015531D01*
X012790Y015630D02*
X013447Y015630D01*
X013545Y015728D02*
X012889Y015728D01*
X012987Y015827D02*
X013644Y015827D01*
X013742Y015925D02*
X013058Y015925D01*
X013824Y018090D02*
X014067Y017990D01*
X014329Y017990D01*
X014572Y018090D01*
X014757Y018276D01*
X014858Y018519D01*
X014858Y018781D01*
X014757Y019024D01*
X014631Y019150D01*
X014757Y019276D01*
X014858Y019519D01*
X014858Y019781D01*
X014757Y020024D01*
X014572Y020210D01*
X014329Y020310D01*
X014067Y020310D01*
X013824Y020210D01*
X013638Y020024D01*
X013538Y019781D01*
X013538Y019519D01*
X013638Y019276D01*
X013764Y019150D01*
X013638Y019024D01*
X013538Y018781D01*
X013538Y018519D01*
X013638Y018276D01*
X013824Y018090D01*
X013822Y018092D02*
X006238Y018092D01*
X006238Y017994D02*
X014058Y017994D01*
X014338Y017994D02*
X016058Y017994D01*
X016067Y017990D02*
X016329Y017990D01*
X016572Y018090D01*
X016757Y018276D01*
X016858Y018519D01*
X016858Y018781D01*
X016757Y019024D01*
X016631Y019150D01*
X016757Y019276D01*
X016858Y019519D01*
X016858Y019781D01*
X016757Y020024D01*
X016572Y020210D01*
X016329Y020310D01*
X016067Y020310D01*
X015824Y020210D01*
X015638Y020024D01*
X015538Y019781D01*
X015538Y019519D01*
X015638Y019276D01*
X015764Y019150D01*
X015638Y019024D01*
X015538Y018781D01*
X015538Y018519D01*
X015638Y018276D01*
X015824Y018090D01*
X016067Y017990D01*
X015822Y018092D02*
X014573Y018092D01*
X014672Y018191D02*
X015724Y018191D01*
X015633Y018289D02*
X014763Y018289D01*
X014804Y018388D02*
X015592Y018388D01*
X015551Y018486D02*
X014844Y018486D01*
X014858Y018585D02*
X015538Y018585D01*
X015538Y018683D02*
X014858Y018683D01*
X014858Y018782D02*
X015538Y018782D01*
X015579Y018880D02*
X014817Y018880D01*
X014776Y018979D02*
X015620Y018979D01*
X015692Y019077D02*
X014704Y019077D01*
X014657Y019176D02*
X015739Y019176D01*
X015640Y019274D02*
X014755Y019274D01*
X014797Y019373D02*
X015598Y019373D01*
X015558Y019471D02*
X014838Y019471D01*
X014858Y019570D02*
X015538Y019570D01*
X015538Y019668D02*
X014858Y019668D01*
X014858Y019767D02*
X015538Y019767D01*
X015573Y019865D02*
X014823Y019865D01*
X014782Y019964D02*
X015613Y019964D01*
X015677Y020062D02*
X014719Y020062D01*
X014621Y020161D02*
X015775Y020161D01*
X015944Y020259D02*
X014452Y020259D01*
X013944Y020259D02*
X006270Y020259D01*
X006239Y020161D02*
X013775Y020161D01*
X013677Y020062D02*
X006238Y020062D01*
X006238Y019964D02*
X013613Y019964D01*
X013573Y019865D02*
X006238Y019865D01*
X006238Y019767D02*
X013538Y019767D01*
X013538Y019668D02*
X006238Y019668D01*
X006238Y019570D02*
X013538Y019570D01*
X013558Y019471D02*
X006238Y019471D01*
X006238Y019373D02*
X013598Y019373D01*
X013640Y019274D02*
X006238Y019274D01*
X006238Y019176D02*
X013739Y019176D01*
X013692Y019077D02*
X006238Y019077D01*
X006238Y018979D02*
X013620Y018979D01*
X013579Y018880D02*
X006238Y018880D01*
X006238Y018782D02*
X013538Y018782D01*
X013538Y018683D02*
X006238Y018683D01*
X006238Y018585D02*
X013538Y018585D01*
X013551Y018486D02*
X006238Y018486D01*
X006238Y018388D02*
X013592Y018388D01*
X013633Y018289D02*
X006238Y018289D01*
X006238Y018191D02*
X013724Y018191D01*
X016338Y017994D02*
X018058Y017994D01*
X017822Y018092D02*
X016573Y018092D01*
X016672Y018191D02*
X017724Y018191D01*
X017633Y018289D02*
X016763Y018289D01*
X016804Y018388D02*
X017592Y018388D01*
X017551Y018486D02*
X016844Y018486D01*
X016858Y018585D02*
X017538Y018585D01*
X017538Y018683D02*
X016858Y018683D01*
X016858Y018782D02*
X017538Y018782D01*
X017579Y018880D02*
X016817Y018880D01*
X016776Y018979D02*
X017620Y018979D01*
X017692Y019077D02*
X016704Y019077D01*
X016657Y019176D02*
X017739Y019176D01*
X017640Y019274D02*
X016755Y019274D01*
X016797Y019373D02*
X017598Y019373D01*
X017558Y019471D02*
X016838Y019471D01*
X016858Y019570D02*
X017538Y019570D01*
X017538Y019668D02*
X016858Y019668D01*
X016858Y019767D02*
X017538Y019767D01*
X017573Y019865D02*
X016823Y019865D01*
X016782Y019964D02*
X017613Y019964D01*
X017677Y020062D02*
X016719Y020062D01*
X016621Y020161D02*
X017775Y020161D01*
X017944Y020259D02*
X016452Y020259D01*
X018198Y019650D02*
X018698Y020150D01*
X023948Y020150D01*
X024448Y019650D01*
X024448Y017150D01*
X023948Y016650D01*
X022948Y016650D01*
X023125Y017107D02*
X023924Y017107D01*
X023826Y017009D02*
X023282Y017009D01*
X022771Y017107D02*
X021788Y017107D01*
X021788Y017206D02*
X024023Y017206D01*
X024108Y017304D02*
X021788Y017304D01*
X021788Y017403D02*
X024108Y017403D01*
X024108Y017501D02*
X021788Y017501D01*
X021788Y017600D02*
X022164Y017600D01*
X022065Y017698D02*
X021830Y017698D01*
X021929Y017797D02*
X021967Y017797D01*
X021448Y018150D02*
X021448Y016900D01*
X022698Y015650D01*
X024048Y015650D01*
X025048Y014650D01*
X025048Y003150D01*
X024448Y003150D01*
X024957Y002726D02*
X025158Y002726D01*
X025158Y002628D02*
X024859Y002628D01*
X024804Y002529D02*
X025158Y002529D01*
X025158Y002431D02*
X024887Y002431D01*
X024935Y002332D02*
X025158Y002332D01*
X025158Y002234D02*
X024961Y002234D01*
X024966Y002100D02*
X024498Y002100D01*
X024498Y001631D01*
X024570Y001643D01*
X024647Y001668D01*
X024720Y001705D01*
X024787Y001753D01*
X024845Y001811D01*
X024893Y001877D01*
X024930Y001950D01*
X024955Y002028D01*
X024966Y002100D01*
X024956Y002037D02*
X025158Y002037D01*
X025158Y002135D02*
X024498Y002135D01*
X024498Y002037D02*
X024398Y002037D01*
X024398Y001938D02*
X024498Y001938D01*
X024498Y001840D02*
X024398Y001840D01*
X024398Y001741D02*
X024498Y001741D01*
X024498Y001643D02*
X024398Y001643D01*
X024328Y001643D02*
X019736Y001643D01*
X019701Y001544D02*
X025127Y001544D01*
X025157Y001643D02*
X024568Y001643D01*
X024770Y001741D02*
X025158Y001741D01*
X025158Y001840D02*
X024865Y001840D01*
X024923Y001938D02*
X025158Y001938D01*
X024992Y001446D02*
X019642Y001446D01*
X018814Y001446D02*
X017082Y001446D01*
X017141Y001544D02*
X018754Y001544D01*
X018720Y001643D02*
X017176Y001643D01*
X017182Y001840D02*
X018714Y001840D01*
X018739Y001938D02*
X017157Y001938D01*
X017110Y002037D02*
X018786Y002037D01*
X018867Y002135D02*
X017028Y002135D01*
X016903Y002923D02*
X018993Y002923D01*
X018813Y003022D02*
X017083Y003022D01*
X017181Y003120D02*
X018714Y003120D01*
X019228Y003540D02*
X016668Y003540D01*
X017135Y004007D02*
X018761Y004007D01*
X018666Y003908D02*
X017230Y003908D01*
X017028Y004105D02*
X018867Y004105D01*
X018968Y004696D02*
X018702Y004696D01*
X018828Y004795D02*
X018881Y004795D01*
X018498Y004696D02*
X018398Y004696D01*
X016295Y004499D02*
X015601Y004499D01*
X015829Y004598D02*
X016067Y004598D01*
X015968Y004696D02*
X015927Y004696D01*
X015295Y004499D02*
X014601Y004499D01*
X014829Y004598D02*
X015067Y004598D01*
X014968Y004696D02*
X014927Y004696D01*
X016106Y003908D02*
X008640Y003908D01*
X008688Y003810D02*
X016065Y003810D01*
X016024Y003711D02*
X008729Y003711D01*
X008753Y003613D02*
X016008Y003613D01*
X016008Y003514D02*
X008753Y003514D01*
X008753Y003416D02*
X016008Y003416D01*
X016046Y003317D02*
X008722Y003317D01*
X008681Y003219D02*
X016087Y003219D01*
X016154Y003120D02*
X008624Y003120D01*
X008526Y003022D02*
X016253Y003022D01*
X016433Y002923D02*
X008371Y002923D01*
X008576Y004007D02*
X016201Y004007D01*
X016307Y004105D02*
X008662Y004105D01*
X006261Y007454D02*
X006238Y007454D01*
X006238Y007553D02*
X006302Y007553D01*
X006342Y007651D02*
X006238Y007651D01*
X006238Y007750D02*
X006409Y007750D01*
X006507Y007848D02*
X006238Y007848D01*
X006238Y007947D02*
X006606Y007947D01*
X006816Y008045D02*
X006238Y008045D01*
X008048Y011690D02*
X008206Y011690D01*
X008074Y011788D02*
X008048Y011788D01*
X008418Y011788D02*
X008478Y011788D01*
X008478Y011690D02*
X008418Y011690D01*
X008418Y011887D02*
X008478Y011887D01*
X008478Y011985D02*
X008418Y011985D01*
X008418Y012084D02*
X008478Y012084D01*
X008897Y011887D02*
X016231Y011887D01*
X016132Y011985D02*
X008941Y011985D01*
X008964Y012084D02*
X016034Y012084D01*
X015935Y012182D02*
X008968Y012182D01*
X008952Y012281D02*
X015837Y012281D01*
X015738Y012379D02*
X008915Y012379D01*
X008853Y012478D02*
X015640Y012478D01*
X015109Y012576D02*
X014787Y012576D01*
X014906Y012675D02*
X014990Y012675D01*
X014109Y012576D02*
X013787Y012576D01*
X013906Y012675D02*
X013990Y012675D01*
X013109Y012576D02*
X012787Y012576D01*
X012906Y012675D02*
X012990Y012675D01*
X012109Y012576D02*
X011787Y012576D01*
X011906Y012675D02*
X011990Y012675D01*
X011448Y013150D02*
X010648Y013950D01*
X009248Y013950D01*
X008448Y013150D01*
X008906Y012675D02*
X009990Y012675D01*
X009891Y012773D02*
X009004Y012773D01*
X009047Y012872D02*
X009849Y012872D01*
X009808Y012970D02*
X009088Y012970D01*
X009108Y013069D02*
X009788Y013069D01*
X009788Y013167D02*
X009108Y013167D01*
X009108Y013266D02*
X009788Y013266D01*
X009822Y013364D02*
X009143Y013364D01*
X009241Y013463D02*
X009863Y013463D01*
X009926Y013561D02*
X009340Y013561D01*
X008787Y012576D02*
X010109Y012576D01*
X010787Y012576D02*
X011109Y012576D01*
X010990Y012675D02*
X010906Y012675D01*
X014653Y005780D02*
X015243Y005780D01*
X015046Y005681D02*
X014850Y005681D01*
X019448Y012650D02*
X019448Y013150D01*
X022707Y016122D02*
X025158Y016122D01*
X025158Y016024D02*
X022805Y016024D01*
X022704Y016221D02*
X022608Y016221D01*
X022586Y016319D02*
X022510Y016319D01*
X022514Y016418D02*
X022411Y016418D01*
X022473Y016516D02*
X022313Y016516D01*
X022214Y016615D02*
X022458Y016615D01*
X022458Y016713D02*
X022116Y016713D01*
X022017Y016812D02*
X022484Y016812D01*
X022525Y016910D02*
X021919Y016910D01*
X021820Y017009D02*
X022613Y017009D01*
X022732Y017600D02*
X023164Y017600D01*
X023065Y017698D02*
X022830Y017698D01*
X022929Y017797D02*
X022967Y017797D01*
X023732Y017600D02*
X024108Y017600D01*
X024108Y017698D02*
X023830Y017698D01*
X023929Y017797D02*
X024108Y017797D01*
X024108Y017895D02*
X024027Y017895D01*
X024038Y017994D02*
X024108Y017994D01*
X024108Y018092D02*
X024038Y018092D01*
X024038Y018191D02*
X024108Y018191D01*
X024108Y018289D02*
X024038Y018289D01*
X024038Y018388D02*
X024108Y018388D01*
X024108Y018486D02*
X023946Y018486D01*
X023848Y018585D02*
X024108Y018585D01*
X024108Y018683D02*
X023749Y018683D01*
X023716Y018782D02*
X024108Y018782D01*
X024108Y018880D02*
X023814Y018880D01*
X023898Y018979D02*
X024108Y018979D01*
X024108Y019077D02*
X023898Y019077D01*
X024788Y019077D02*
X025158Y019077D01*
X025158Y018979D02*
X024788Y018979D01*
X024788Y018880D02*
X025158Y018880D01*
X025158Y018782D02*
X024788Y018782D01*
X024788Y018683D02*
X025158Y018683D01*
X025158Y018585D02*
X024788Y018585D01*
X024788Y018486D02*
X025158Y018486D01*
X025158Y018388D02*
X024788Y018388D01*
X024788Y018289D02*
X025158Y018289D01*
X025158Y018191D02*
X024788Y018191D01*
X024788Y018092D02*
X025158Y018092D01*
X025158Y017994D02*
X024788Y017994D01*
X024788Y017895D02*
X025158Y017895D01*
X025158Y017797D02*
X024788Y017797D01*
X024788Y017698D02*
X025158Y017698D01*
X025158Y017600D02*
X024788Y017600D01*
X024788Y017501D02*
X025158Y017501D01*
X025158Y017403D02*
X024788Y017403D01*
X024788Y017304D02*
X025158Y017304D01*
X025158Y017206D02*
X024788Y017206D01*
X024788Y017107D02*
X025158Y017107D01*
X025158Y017009D02*
X024757Y017009D01*
X024689Y016910D02*
X025158Y016910D01*
X025158Y016812D02*
X024590Y016812D01*
X024492Y016713D02*
X025158Y016713D01*
X025158Y016615D02*
X024393Y016615D01*
X024295Y016516D02*
X025158Y016516D01*
X025158Y016418D02*
X024196Y016418D01*
X024037Y016319D02*
X025158Y016319D01*
X025158Y016221D02*
X023191Y016221D01*
X024254Y015925D02*
X025158Y015925D01*
X025158Y015827D02*
X024352Y015827D01*
X024451Y015728D02*
X025158Y015728D01*
X025158Y015630D02*
X024549Y015630D01*
X024648Y015531D02*
X025158Y015531D01*
X025158Y015433D02*
X024746Y015433D01*
X024845Y015334D02*
X025158Y015334D01*
X025158Y015236D02*
X024943Y015236D01*
X025042Y015137D02*
X025158Y015137D01*
X025158Y015039D02*
X025140Y015039D01*
X025158Y019176D02*
X024788Y019176D01*
X024788Y019274D02*
X025158Y019274D01*
X025158Y019373D02*
X024788Y019373D01*
X024788Y019471D02*
X025158Y019471D01*
X025158Y019570D02*
X024788Y019570D01*
X024788Y019668D02*
X025158Y019668D01*
X025158Y019767D02*
X024768Y019767D01*
X024714Y019865D02*
X025158Y019865D01*
X025158Y019964D02*
X024615Y019964D01*
X024517Y020062D02*
X025158Y020062D01*
X025157Y020161D02*
X024418Y020161D01*
X024320Y020259D02*
X025126Y020259D01*
X024973Y020358D02*
X024221Y020358D01*
X018425Y020358D02*
X006423Y020358D01*
X025151Y002825D02*
X025158Y002825D01*
D16*
X022448Y005650D03*
X021448Y007650D03*
X018448Y008150D03*
X015448Y009150D03*
X012448Y007650D03*
X011698Y008900D03*
X009948Y007650D03*
X012448Y005150D03*
X011948Y002650D03*
X023698Y010650D03*
X023698Y011650D03*
X018198Y014400D03*
X016198Y014400D03*
X014198Y014400D03*
X011448Y019650D03*
X006948Y019650D03*
X022948Y016650D03*
D17*
X016568Y006900D02*
X011948Y006900D01*
X007698Y011150D01*
X007698Y012650D01*
X007698Y013900D01*
X009948Y016150D01*
X010448Y016150D01*
X016568Y006900D02*
X016568Y006270D01*
X015448Y005150D01*
M02*
