%
M48
M72
T01C0.0200
T02C0.0320
T03C0.0360
T04C0.0400
T05C0.0433
T06C0.0866
%
T01
X6948Y19650
X11448Y19650
X11698Y8900
X12448Y7650
X15448Y9150
X12448Y5150
X9948Y7650
X11948Y2650
X18448Y8150
X22448Y5650
X23698Y10650
X22948Y16650
X18198Y14400
X23698Y11650
X14198Y14400
X16198Y14400
X21448Y7650
T02
X14198Y19650
X14198Y18650
X16198Y19650
X16198Y18650
X18198Y19650
X18198Y18650
X8448Y13150
X7698Y12650
X8448Y12150
T03
X21448Y18150
X21448Y19150
X22448Y18150
X22448Y19150
X23448Y18150
X23448Y19150
X8093Y6278
X8093Y5344
X8093Y4456
X8093Y3522
T04
X24448Y7150
X24448Y6150
X24448Y5150
X24448Y4150
X24448Y3150
X24448Y2150
X19228Y1760
X16668Y1760
X19228Y3540
X16668Y3540
X10448Y16150
X10448Y17150
X11448Y16150
X11448Y17150
X12448Y16150
X12448Y17150
X15448Y13150
X21448Y13150
X17448Y13150
X16448Y13150
X18448Y13150
X17448Y5150
X16448Y5150
X12448Y13150
X13448Y13150
X14448Y13150
X18448Y5150
X14448Y5150
X19448Y13150
X22448Y13150
X20448Y13150
X19448Y5150
X10448Y13150
X15448Y5150
X11448Y13150
T05
X7109Y5786
X7109Y4014
T06
X7148Y2617
X7148Y7183
M30
